<svg xmlns="http://www.w3.org/2000/svg" xmlns:xlink="http://www.w3.org/1999/xlink" width="64" zoomAndPan="magnify" viewBox="0 0 48 48" height="64" preserveAspectRatio="xMidYMid meet" version="1.0"><defs><clipPath id="1cf270d1b7"><path d="M 9.835938 3 L 38.488281 3 L 38.488281 47 L 9.835938 47 Z M 9.835938 3 " clip-rule="nonzero"/></clipPath><clipPath id="98c00349d7"><path d="M 20 40 L 28 40 L 28 47.019531 L 20 47.019531 Z M 20 40 " clip-rule="nonzero"/></clipPath><clipPath id="5403f82a04"><path d="M 9.835938 33 L 16 33 L 16 39 L 9.835938 39 Z M 9.835938 33 " clip-rule="nonzero"/></clipPath><clipPath id="3bfd8876a3"><path d="M 33 33 L 38.488281 33 L 38.488281 39 L 33 39 Z M 33 33 " clip-rule="nonzero"/></clipPath></defs><g clip-path="url(#1cf270d1b7)"><path fill="#000000" d="M 30.660156 27.800781 L 29.96875 28.257812 C 28.566406 26.183594 27.027344 25.894531 27.011719 25.894531 L 27.152344 25.082031 C 27.230469 25.097656 29.0625 25.433594 30.660156 27.800781 Z M 37.898438 38.101562 C 37.117188 40.734375 35.28125 42.878906 32.589844 44.300781 C 30.257812 45.535156 27.410156 46.183594 24.335938 46.183594 C 24.191406 46.183594 24.050781 46.179688 23.90625 46.179688 C 15.761719 46.019531 11.167969 42.890625 10.253906 36.882812 C 10.015625 35.3125 9.839844 33.871094 10.070312 32.113281 C 10.402344 29.597656 11.765625 25.460938 14.066406 21.890625 C 15.78125 19.234375 18.535156 16.113281 22.332031 15.289062 L 22.332031 3.8125 L 23.167969 3.8125 L 23.167969 15.148438 C 23.328125 15.128906 23.496094 15.113281 23.664062 15.101562 L 23.691406 3.8125 L 24.523438 3.8125 L 24.496094 15.085938 C 24.683594 15.09375 24.867188 15.105469 25.050781 15.125 L 25.050781 3.8125 L 25.882812 3.8125 L 25.882812 15.253906 C 28.539062 15.808594 31.0625 17.703125 33.261719 20.832031 C 35.421875 23.894531 37.140625 28.015625 37.867188 31.855469 C 38.359375 34.464844 38.371094 36.507812 37.898438 38.101562 Z M 24.492188 16.679688 C 24.679688 16.6875 24.863281 16.703125 25.050781 16.722656 L 25.050781 15.953125 C 24.867188 15.933594 24.679688 15.917969 24.496094 15.910156 Z M 24.460938 29.8125 L 25.050781 29.792969 L 25.050781 17.554688 C 24.867188 17.527344 24.679688 17.511719 24.492188 17.5 Z M 23.164062 16.746094 C 23.328125 16.722656 23.492188 16.703125 23.660156 16.691406 L 23.660156 15.925781 C 23.492188 15.941406 23.328125 15.957031 23.164062 15.980469 Z M 23.164062 29.851562 L 23.628906 29.835938 L 23.65625 17.519531 C 23.492188 17.53125 23.328125 17.550781 23.164062 17.578125 Z M 23.164062 36.957031 C 23.3125 36.964844 23.460938 36.972656 23.609375 36.976562 L 23.625 30.660156 L 24.457031 30.636719 L 24.441406 36.988281 C 24.644531 36.988281 24.847656 36.984375 25.050781 36.980469 L 25.050781 30.617188 L 24.457031 30.636719 L 24.457031 30.632812 L 23.625 30.660156 L 23.167969 30.675781 L 23.167969 36.957031 Z M 24.441406 37.8125 L 24.429688 42.230469 C 24.640625 42.242188 24.847656 42.25 25.050781 42.253906 L 25.050781 37.804688 C 24.847656 37.808594 24.644531 37.8125 24.441406 37.8125 Z M 23.164062 42.25 C 23.308594 42.246094 23.453125 42.238281 23.597656 42.230469 L 23.605469 37.800781 C 23.460938 37.792969 23.3125 37.789062 23.164062 37.78125 Z M 18.628906 42.351562 C 17.339844 41.847656 16.195312 41.082031 15.226562 40.082031 C 13.582031 38.382812 13.027344 36.59375 13.003906 36.519531 L 13.800781 36.28125 C 13.808594 36.296875 14.335938 37.980469 15.855469 39.539062 C 16.738281 40.445312 17.78125 41.136719 18.960938 41.59375 C 19.984375 41.992188 21.113281 42.210938 22.332031 42.25 L 22.332031 37.734375 C 21.648438 37.683594 20.964844 37.609375 20.277344 37.511719 C 16.839844 37.023438 14.65625 36.101562 14.5625 36.0625 L 14.894531 35.308594 L 14.726562 35.683594 L 14.894531 35.308594 C 15.636719 35.625 17.753906 36.324219 20.425781 36.703125 C 21.058594 36.792969 21.695312 36.859375 22.332031 36.910156 L 22.332031 30.699219 C 20.265625 30.792969 17.527344 31.234375 15.4375 32.722656 C 16.742188 33.457031 18.742188 34.195312 21.804688 34.78125 L 21.648438 35.589844 C 18.992188 35.082031 16.851562 34.40625 15.289062 33.578125 C 15.097656 33.480469 14.921875 33.378906 14.75 33.273438 C 13.96875 33.984375 13.558594 34.671875 13.441406 34.972656 L 12.660156 34.6875 C 12.675781 34.644531 13.007812 33.785156 14.042969 32.800781 C 14.097656 32.84375 14.15625 32.886719 14.214844 32.925781 L 14.042969 32.800781 C 13.441406 32.347656 12.976562 31.863281 12.664062 31.347656 C 12.652344 31.328125 12.640625 31.308594 12.628906 31.285156 C 12.566406 31.609375 12.511719 31.910156 12.476562 32.183594 C 12.007812 35.839844 12.632812 38.679688 14.332031 40.625 C 16.203125 42.769531 19.433594 43.902344 23.933594 43.992188 C 25.871094 44.03125 27.769531 43.722656 29.414062 43.105469 C 31.136719 42.460938 32.550781 41.507812 33.609375 40.277344 C 35.4375 38.152344 36.082031 35.289062 35.476562 31.992188 C 34.851562 28.628906 33.378906 25.019531 31.535156 22.34375 C 30.273438 20.515625 28.351562 18.414062 25.882812 17.726562 L 25.882812 29.769531 L 30.566406 29.628906 L 30.59375 30.453125 L 25.882812 30.59375 L 25.882812 36.949219 C 26.015625 36.941406 26.148438 36.9375 26.28125 36.929688 C 28.683594 36.765625 31.289062 36.195312 33.511719 35.402344 L 33.535156 36.265625 C 31.234375 37.085938 28.804688 37.585938 26.316406 37.75 C 26.171875 37.761719 26.027344 37.769531 25.882812 37.777344 L 25.882812 42.246094 C 27.039062 42.191406 28.113281 41.972656 29.089844 41.59375 C 30.265625 41.140625 31.308594 40.449219 32.195312 39.539062 C 33.710938 37.980469 34.242188 36.300781 34.246094 36.285156 L 35.042969 36.523438 C 35.019531 36.597656 34.464844 38.382812 32.820312 40.085938 C 31.855469 41.085938 30.707031 41.847656 29.417969 42.351562 C 28.171875 42.839844 26.792969 43.082031 25.304688 43.082031 C 24.886719 43.082031 24.457031 43.0625 24.023438 43.023438 C 23.585938 43.0625 23.160156 43.082031 22.742188 43.082031 C 21.25 43.082031 19.871094 42.835938 18.628906 42.351562 Z M 20.542969 25.675781 C 20.53125 25.675781 19.179688 25.71875 17.652344 25.988281 C 15.746094 26.328125 14.40625 26.859375 13.769531 27.535156 C 13.484375 28.261719 13.246094 28.964844 13.050781 29.625 C 13.027344 29.765625 12.972656 30.28125 13.40625 30.964844 C 13.652344 31.355469 14.050781 31.792969 14.6875 32.25 C 16.003906 31.234375 18.375 30.042969 22.332031 29.875 L 22.332031 17.753906 C 19.425781 18.5625 17.265625 21.101562 15.894531 23.273438 C 15.316406 24.191406 14.804688 25.160156 14.367188 26.125 C 16.660156 24.984375 20.332031 24.855469 20.519531 24.851562 Z M 37.050781 32.007812 C 36.34375 28.277344 34.671875 24.273438 32.578125 21.300781 C 31.101562 19.203125 28.824219 16.78125 25.882812 16.09375 L 25.882812 16.875 C 28.164062 17.429688 30.328125 19.132812 32.222656 21.878906 C 34.128906 24.648438 35.652344 28.371094 36.292969 31.84375 C 36.949219 35.390625 36.242188 38.488281 34.246094 40.808594 C 33.089844 42.148438 31.566406 43.179688 29.710938 43.875 C 28.0625 44.492188 26.183594 44.816406 24.257812 44.816406 C 24.144531 44.816406 24.03125 44.816406 23.917969 44.8125 C 19.171875 44.71875 15.734375 43.488281 13.699219 41.160156 C 11.839844 39.03125 11.152344 35.972656 11.65625 32.078125 C 11.949219 29.800781 13.15625 26.0625 15.191406 22.835938 C 16.679688 20.476562 19.058594 17.710938 22.332031 16.902344 L 22.332031 16.136719 C 18.898438 16.960938 16.367188 19.859375 14.769531 22.332031 C 12.550781 25.777344 11.203125 29.871094 10.894531 32.21875 C 10.679688 33.867188 10.851562 35.25 11.078125 36.757812 C 11.296875 38.1875 11.742188 39.453125 12.40625 40.519531 C 13.050781 41.5625 13.925781 42.445312 15 43.148438 C 17.125 44.535156 20.128906 45.277344 23.921875 45.351562 C 26.976562 45.410156 29.914062 44.78125 32.199219 43.574219 C 34.6875 42.257812 36.386719 40.285156 37.101562 37.867188 C 37.527344 36.421875 37.511719 34.449219 37.050781 32.007812 Z M 33.753906 30.925781 C 32.910156 30.09375 32.050781 29.683594 32.015625 29.667969 L 31.660156 30.414062 C 31.6875 30.425781 34.695312 31.863281 34.53125 34.804688 L 35.363281 34.851562 C 35.441406 33.402344 34.886719 32.042969 33.753906 30.925781 Z M 26.449219 18.773438 L 26.046875 19.496094 C 26.058594 19.5 27.035156 20.039062 28.101562 21.316406 C 29.085938 22.492188 30.355469 24.554688 30.800781 27.707031 L 31.625 27.589844 C 31.148438 24.226562 29.777344 22.019531 28.714844 20.757812 C 27.546875 19.375 26.492188 18.796875 26.449219 18.773438 Z M 26.449219 18.773438 " fill-opacity="1" fill-rule="nonzero"/></g><path fill="#000000" d="M 24.765625 0.554688 L 26.734375 3.929688 C 27.058594 4.484375 26.652344 5.179688 26.003906 5.179688 L 22.0625 5.179688 C 21.414062 5.179688 21.007812 4.484375 21.335938 3.929688 L 23.304688 0.554688 C 23.628906 0 24.441406 0 24.765625 0.554688 Z M 24.765625 0.554688 " fill-opacity="1" fill-rule="nonzero"/><path fill="#000000" d="M 23.304688 11.648438 L 21.316406 8.246094 C 20.992188 7.691406 21.398438 6.996094 22.046875 6.996094 L 26.023438 6.996094 C 26.671875 6.996094 27.078125 7.691406 26.75 8.246094 L 24.765625 11.648438 C 24.441406 12.203125 23.628906 12.203125 23.304688 11.648438 Z M 23.304688 11.648438 " fill-opacity="1" fill-rule="nonzero"/><path fill="#000000" d="M 26.285156 20.097656 L 21.785156 20.097656 C 21.34375 20.097656 20.988281 19.742188 20.988281 19.304688 L 20.988281 14.859375 C 20.988281 14.425781 21.34375 14.070312 21.785156 14.070312 L 26.285156 14.070312 C 26.722656 14.070312 27.082031 14.425781 27.082031 14.859375 L 27.082031 19.304688 C 27.082031 19.742188 26.722656 20.097656 26.285156 20.097656 Z M 26.285156 20.097656 " fill-opacity="1" fill-rule="nonzero"/><path fill="#000000" d="M 20.289062 24.707031 L 23.472656 21.558594 C 23.78125 21.253906 24.285156 21.253906 24.597656 21.558594 L 27.78125 24.707031 C 28.09375 25.011719 28.09375 25.511719 27.78125 25.820312 L 24.597656 28.964844 C 24.289062 29.273438 23.78125 29.273438 23.472656 28.964844 L 20.289062 25.820312 C 19.976562 25.511719 19.976562 25.015625 20.289062 24.707031 Z M 20.289062 24.707031 " fill-opacity="1" fill-rule="nonzero"/><path fill="#000000" d="M 26.289062 38.890625 L 21.78125 38.890625 C 21.339844 38.890625 20.988281 38.539062 20.988281 38.109375 L 20.988281 33.648438 C 20.988281 33.21875 21.339844 32.867188 21.78125 32.867188 L 26.289062 32.867188 C 26.726562 32.867188 27.082031 33.21875 27.082031 33.648438 L 27.082031 38.109375 C 27.082031 38.539062 26.726562 38.890625 26.289062 38.890625 Z M 26.289062 38.890625 " fill-opacity="1" fill-rule="nonzero"/><g clip-path="url(#98c00349d7)"><path fill="#000000" d="M 26.289062 47.011719 L 21.78125 47.011719 C 21.339844 47.011719 20.988281 46.660156 20.988281 46.230469 L 20.988281 41.769531 C 20.988281 41.335938 21.339844 40.988281 21.78125 40.988281 L 26.289062 40.988281 C 26.726562 40.988281 27.082031 41.335938 27.082031 41.769531 L 27.082031 46.230469 C 27.082031 46.660156 26.726562 47.011719 26.289062 47.011719 Z M 26.289062 47.011719 " fill-opacity="1" fill-rule="nonzero"/></g><g clip-path="url(#5403f82a04)"><path fill="#000000" d="M 14.621094 36.601562 L 11.207031 38.550781 C 10.644531 38.871094 9.941406 38.46875 9.941406 37.828125 L 9.941406 33.929688 C 9.941406 33.289062 10.644531 32.886719 11.207031 33.210938 L 14.621094 35.15625 C 15.183594 35.476562 15.183594 36.28125 14.621094 36.601562 Z M 14.621094 36.601562 " fill-opacity="1" fill-rule="nonzero"/></g><g clip-path="url(#3bfd8876a3)"><path fill="#000000" d="M 33.785156 35.160156 L 37.230469 33.191406 C 37.792969 32.871094 38.496094 33.273438 38.496094 33.914062 L 38.496094 37.847656 C 38.496094 38.488281 37.792969 38.886719 37.230469 38.566406 L 33.785156 36.601562 C 33.222656 36.28125 33.222656 35.480469 33.785156 35.160156 Z M 33.785156 35.160156 " fill-opacity="1" fill-rule="nonzero"/></g><path fill="#000000" d="M 28.480469 29.480469 L 30.75 27.308594 C 31.101562 26.972656 31.683594 27.109375 31.847656 27.5625 L 32.726562 30.003906 C 32.890625 30.460938 32.523438 30.929688 32.035156 30.886719 L 28.886719 30.617188 C 28.316406 30.570312 28.066406 29.875 28.480469 29.480469 Z M 28.480469 29.480469 " fill-opacity="1" fill-rule="nonzero"/></svg>