<svg xmlns="http://www.w3.org/2000/svg" xmlns:xlink="http://www.w3.org/1999/xlink" width="448" zoomAndPan="magnify" viewBox="0 0 336 479.999983" height="640" preserveAspectRatio="xMidYMid meet" version="1.0"><defs><clipPath id="fc6a33b0ba"><path d="M 230 208 L 301.863281 208 L 301.863281 314 L 230 314 Z M 230 208 " clip-rule="nonzero"/></clipPath><clipPath id="49afaa9c51"><path d="M 76 293 L 252.507812 293 L 252.507812 375.335938 L 76 375.335938 Z M 76 293 " clip-rule="nonzero"/></clipPath></defs><rect x="-33.6" width="403.2" fill="#ffffff" y="-47.999998" height="575.99998" fill-opacity="1"/><rect x="-33.6" width="403.2" fill="#ffffff" y="-47.999998" height="575.99998" fill-opacity="1"/><path fill="#444142" d="M 97.046875 278.292969 C 91.726562 284.441406 88.773438 292.785156 98.09375 296.660156 C 109.371094 301.34375 117.804688 288.609375 122.402344 280.378906 C 122.648438 279.957031 122.460938 277.796875 121.914062 278.515625 C 117.847656 283.878906 114.667969 289.945312 108.664062 293.460938 C 104.945312 295.644531 100.730469 295.164062 96.898438 293.617188 C 89.863281 290.777344 94.417969 283.171875 97.289062 279.214844 C 97.4375 279.003906 97.332031 277.96875 97.046875 278.292969 " fill-opacity="1" fill-rule="nonzero"/><path fill="#444142" d="M 117.015625 294.046875 C 117.578125 302.253906 115.136719 307.765625 119.367188 315.199219 C 124.144531 323.621094 135.613281 329.179688 143.285156 334.433594 C 152.957031 341.058594 161.460938 347.988281 173.214844 350.339844 C 183.839844 352.449219 195.40625 348.296875 204.234375 342.671875 C 204.769531 342.335938 204.671875 340.269531 203.914062 340.585938 C 184.683594 348.761719 169.976562 350.265625 152.144531 337.820312 C 145.390625 333.097656 138.542969 328.511719 131.78125 323.796875 C 123.476562 318.011719 116.472656 312.816406 117.734375 300.234375 C 118.035156 297.25 117.894531 296.792969 117.578125 293.84375 C 117.480469 293.054688 116.96875 293.4375 117.015625 294.046875 " fill-opacity="1" fill-rule="nonzero"/><path fill="#444142" d="M 201.019531 227.359375 C 194.152344 243.847656 206.503906 255.050781 219.015625 264.152344 C 228.28125 270.902344 236.828125 277.429688 248.390625 279.378906 C 260.046875 281.339844 273.007812 276.503906 282.65625 270.300781 C 283.09375 270.015625 283.011719 268.199219 282.394531 268.449219 C 265.195312 275.214844 250.96875 280.347656 233.460938 271.25 C 219.527344 264.003906 194.105469 247.753906 201.582031 228.710938 C 201.75 228.277344 201.410156 226.421875 201.019531 227.359375 " fill-opacity="1" fill-rule="nonzero"/><path fill="#444142" d="M 174.351562 204.585938 C 171.699219 212.484375 170.824219 221 177.207031 227.300781 C 184.261719 234.273438 199.125 234.644531 203.679688 224.925781 C 203.792969 224.664062 203.640625 222.832031 203.25 223.238281 C 198.238281 228.476562 192.738281 230.414062 185.570312 228.964844 C 181.714844 228.179688 178.136719 226.023438 175.605469 223.058594 C 171.488281 218.257812 173.09375 211.019531 174.785156 205.628906 C 174.890625 205.296875 174.605469 203.855469 174.351562 204.585938 " fill-opacity="1" fill-rule="nonzero"/><path fill="#444142" d="M 64.464844 230.550781 C 57.054688 235.613281 53.75 244.945312 58.386719 253.128906 C 63.488281 262.132812 75.023438 263.933594 81.476562 255.15625 C 81.769531 254.765625 81.597656 252.425781 81.042969 252.890625 C 75.1875 257.71875 69.027344 260.308594 62.375 255.121094 C 53.898438 248.511719 57.28125 237.5625 64.621094 231.773438 C 64.886719 231.558594 64.742188 230.363281 64.464844 230.550781 " fill-opacity="1" fill-rule="nonzero"/><path fill="#444142" d="M 137.714844 151.730469 C 117.863281 163.371094 135.726562 197.460938 155.96875 186.308594 C 156.390625 186.070312 156.34375 184.160156 155.804688 184.273438 C 147.777344 185.902344 141 185.566406 134.945312 179.363281 C 126.925781 171.148438 128.75 159.203125 137.859375 152.878906 C 138.121094 152.699219 137.996094 151.566406 137.714844 151.730469 " fill-opacity="1" fill-rule="nonzero"/><path fill="#444142" d="M 44.875 258.664062 C 44.851562 258.363281 44.792969 258.101562 44.730469 258.027344 C 43.746094 256.898438 48.390625 250.367188 49.21875 249.039062 C 51.050781 246.152344 53.066406 243.359375 54.71875 240.363281 C 54.882812 240.070312 54.6875 238.707031 54.433594 239.125 C 53.449219 240.761719 44.144531 252.535156 43.589844 257.523438 C 44.023438 257.898438 44.445312 258.28125 44.875 258.664062 " fill-opacity="1" fill-rule="nonzero"/><path fill="#444142" d="M 46.316406 259.976562 C 47.503906 257.582031 49.554688 255.089844 50.675781 253.355469 C 52.863281 249.96875 55.28125 246.65625 57.183594 243.089844 C 57.207031 242.347656 57.25 241.605469 57.339844 240.867188 L 57.265625 240.929688 C 54.816406 245.492188 51.472656 249.59375 48.601562 253.886719 C 47.59375 255.398438 46.203125 257.207031 45.378906 259.113281 C 45.691406 259.40625 46.007812 259.683594 46.316406 259.976562 " fill-opacity="1" fill-rule="nonzero"/><path fill="#444142" d="M 50.222656 263.816406 C 52.765625 260.105469 55.175781 256.222656 57.625 252.460938 C 57.867188 252.078125 57.617188 250.277344 57.242188 250.824219 C 54.558594 254.683594 51.222656 258.429688 49.066406 262.636719 C 49.457031 263.035156 49.847656 263.417969 50.222656 263.816406 " fill-opacity="1" fill-rule="nonzero"/><path fill="#444142" d="M 53.785156 267.9375 C 54.839844 266.367188 55.859375 264.738281 56.964844 263.214844 C 58.722656 260.789062 60.527344 258.421875 62.285156 256.003906 C 61.976562 255.71875 61.617188 255.457031 61.339844 255.15625 C 59.566406 257.34375 57.769531 259.511719 56.003906 261.710938 C 54.882812 263.109375 53.386719 264.679688 52.472656 266.382812 C 52.90625 266.902344 53.359375 267.410156 53.785156 267.9375 " fill-opacity="1" fill-rule="nonzero"/><path fill="#444142" d="M 56.28125 271.054688 C 57.648438 269.371094 58.707031 267.195312 59.949219 265.480469 C 61.730469 263.011719 63.601562 260.617188 65.441406 258.199219 C 65.027344 257.996094 64.636719 257.734375 64.230469 257.484375 C 62.804688 259.210938 61.375 260.929688 59.976562 262.679688 C 58.273438 264.804688 56.09375 267.148438 55.230469 269.769531 C 55.582031 270.210938 55.921875 270.640625 56.28125 271.054688 " fill-opacity="1" fill-rule="nonzero"/><path fill="#444142" d="M 59.429688 274.355469 C 59.730469 273.75 60.082031 273.148438 60.421875 272.578125 C 61.414062 270.917969 62.546875 269.339844 63.667969 267.765625 C 65.628906 265.015625 67.726562 262.34375 69.605469 259.535156 C 69.191406 259.460938 68.792969 259.339844 68.386719 259.242188 C 65.878906 262.5625 63.15625 265.714844 60.722656 269.09375 C 59.894531 270.257812 58.828125 271.707031 58.25 273.230469 C 58.632812 273.621094 59.023438 273.996094 59.429688 274.355469 " fill-opacity="1" fill-rule="nonzero"/><path fill="#444142" d="M 63.539062 277.171875 C 66.09375 273.050781 68.929688 269.25 71.910156 265.375 C 72.210938 264.980469 71.949219 263.035156 71.484375 263.613281 C 68.257812 267.660156 64.375 271.660156 62.097656 276.378906 C 62.5625 276.664062 63.042969 276.933594 63.539062 277.171875 " fill-opacity="1" fill-rule="nonzero"/><path fill="#444142" d="M 78.960938 298.527344 C 81.222656 293.496094 85.039062 289.425781 88.03125 284.71875 C 88.234375 284.390625 88.023438 282.828125 87.699219 283.292969 C 84.632812 287.804688 79.980469 292.011719 77.9375 297.222656 C 78.269531 297.664062 78.621094 298.09375 78.960938 298.527344 " fill-opacity="1" fill-rule="nonzero"/><path fill="#444142" d="M 94.222656 282.714844 L 94.265625 282.59375 C 94.207031 282.089844 94.035156 281.511719 93.847656 282.03125 C 91.292969 288.910156 83.703125 294.179688 81.175781 301.066406 C 81.621094 301.539062 82.070312 302.003906 82.523438 302.457031 C 86 296.027344 91.398438 290.703125 93.980469 283.8125 C 94.050781 283.449219 94.132812 283.082031 94.222656 282.714844 " fill-opacity="1" fill-rule="nonzero"/><path fill="#444142" d="M 93.960938 291.964844 L 93.898438 292.011719 C 90.929688 296.28125 87.316406 300.390625 85.496094 305.324219 C 85.851562 305.660156 86.210938 305.992188 86.578125 306.335938 C 88.804688 301.800781 91.515625 297.664062 94.207031 293.355469 C 94.28125 293.234375 94.296875 292.941406 94.273438 292.648438 C 94.148438 292.429688 94.050781 292.191406 93.960938 291.964844 " fill-opacity="1" fill-rule="nonzero"/><path fill="#444142" d="M 96.613281 295.074219 C 93.132812 298.476562 90.320312 303.5 88.449219 308.070312 C 88.871094 308.46875 89.277344 308.882812 89.699219 309.28125 C 90.667969 307.351562 91.5625 305.359375 92.613281 303.476562 C 94.140625 300.734375 96.011719 298.265625 97.851562 295.726562 C 97.394531 295.53125 96.988281 295.308594 96.613281 295.074219 " fill-opacity="1" fill-rule="nonzero"/><path fill="#444142" d="M 101.699219 296.644531 C 98.527344 301.304688 94.484375 305.652344 92.824219 311.089844 C 92.757812 311.316406 92.863281 312.1875 93.019531 312.613281 L 93.230469 312.832031 L 93.3125 312.734375 C 95.824219 306.914062 99.753906 302.140625 102.953125 296.726562 L 102.984375 296.621094 C 102.5625 296.660156 102.128906 296.660156 101.699219 296.644531 " fill-opacity="1" fill-rule="nonzero"/><path fill="#444142" d="M 107.484375 295.359375 C 103.742188 300.332031 99.691406 305.632812 99.144531 311.820312 C 99.121094 312.097656 99.46875 313.628906 99.738281 312.734375 C 101.878906 305.738281 105.808594 300.15625 109.753906 294.136719 C 109.011719 294.59375 108.257812 295.007812 107.484375 295.359375 " fill-opacity="1" fill-rule="nonzero"/><path fill="#444142" d="M 116.308594 290.019531 C 110.46875 298.378906 103.203125 307.433594 102.1875 317.945312 C 102.148438 318.261719 102.554688 319.90625 102.839844 318.9375 C 105.742188 308.6875 110.835938 300.390625 116.660156 291.574219 C 116.886719 291.222656 116.660156 289.53125 116.308594 290.019531 " fill-opacity="1" fill-rule="nonzero"/><path fill="#444142" d="M 115.398438 308.117188 C 112.753906 313.164062 109.019531 318.035156 107.546875 323.601562 C 107.5 323.808594 107.644531 325.222656 107.890625 324.75 C 110.507812 319.664062 113.128906 314.523438 115.675781 309.394531 C 115.828125 309.09375 115.609375 307.71875 115.398438 308.117188 " fill-opacity="1" fill-rule="nonzero"/><path fill="#444142" d="M 119.15625 311.796875 C 116.210938 315.941406 110.589844 320.925781 111.21875 326.5 C 111.242188 326.785156 111.597656 327.59375 111.769531 326.910156 C 113.167969 321.59375 116.503906 317.789062 119.484375 313.289062 C 119.703125 312.953125 119.484375 311.316406 119.15625 311.796875 " fill-opacity="1" fill-rule="nonzero"/><path fill="#444142" d="M 122.222656 316.660156 C 119.929688 319.546875 116.902344 322.773438 116.351562 326.378906 C 116.292969 326.753906 116.707031 328.902344 117.035156 327.773438 C 118.089844 323.984375 120.628906 320.777344 122.808594 317.554688 C 122.605469 317.261719 122.402344 316.960938 122.222656 316.660156 " fill-opacity="1" fill-rule="nonzero"/><path fill="#444142" d="M 125.023438 320.273438 C 122.800781 323.1875 120.191406 326.175781 119.449219 329.734375 C 119.402344 329.960938 119.621094 331.882812 120.011719 331.191406 C 121.035156 329.335938 121.808594 327.40625 122.957031 325.597656 C 123.90625 324.109375 124.925781 322.660156 125.910156 321.175781 C 125.601562 320.882812 125.316406 320.574219 125.023438 320.273438 " fill-opacity="1" fill-rule="nonzero"/><path fill="#444142" d="M 128.269531 323.300781 C 126.511719 326.152344 124.582031 329 123.527344 332.136719 C 123.429688 332.4375 123.597656 334.414062 124.003906 333.757812 C 125.910156 330.679688 127.570312 327.324219 129.226562 324.066406 C 128.910156 323.816406 128.585938 323.5625 128.269531 323.300781 " fill-opacity="1" fill-rule="nonzero"/><path fill="#444142" d="M 131.613281 325.851562 C 129.398438 328.847656 126.730469 332.09375 127.039062 335.953125 C 127.0625 336.304688 127.347656 336.964844 127.59375 336.351562 C 128.269531 334.691406 128.640625 333.082031 129.554688 331.5 C 130.511719 329.839844 131.691406 328.308594 132.75 326.707031 L 132.773438 326.648438 C 132.382812 326.378906 131.992188 326.117188 131.613281 325.851562 " fill-opacity="1" fill-rule="nonzero"/><path fill="#444142" d="M 135.628906 328.527344 C 134.296875 330.449219 132.863281 332.289062 131.757812 334.359375 C 131.050781 335.6875 130.105469 338.039062 131 339.480469 C 131.195312 339.796875 131.351562 339.332031 131.382812 339.179688 C 131.78125 337.347656 132.296875 335.898438 133.28125 334.261719 C 134.28125 332.601562 135.460938 331.054688 136.492188 329.417969 L 136.574219 329.132812 C 136.257812 328.929688 135.949219 328.734375 135.628906 328.527344 " fill-opacity="1" fill-rule="nonzero"/><path fill="#444142" d="M 139.917969 331.214844 C 137.25 334.726562 133.605469 339.269531 134.898438 343.519531 C 135.132812 344.285156 135.460938 343.339844 135.5 343.054688 C 135.980469 338.859375 138.777344 335.390625 141.082031 331.949219 C 140.699219 331.703125 140.316406 331.460938 139.917969 331.214844 " fill-opacity="1" fill-rule="nonzero"/><path fill="#444142" d="M 144.320312 334.082031 C 142.164062 337.566406 137.972656 341.734375 138.226562 346.105469 C 138.265625 346.757812 138.8125 348.035156 139.078125 346.71875 C 139.902344 342.703125 142.78125 339.4375 144.808594 335.960938 C 144.960938 335.703125 144.921875 334.921875 144.78125 334.390625 L 144.320312 334.082031 " fill-opacity="1" fill-rule="nonzero"/><path fill="#444142" d="M 148.65625 336.9375 C 145.675781 340.75 140.578125 345.164062 140.820312 350.363281 C 140.851562 351.03125 141.445312 352.351562 141.691406 350.992188 C 142.578125 346.148438 146.53125 342.417969 149.273438 338.511719 C 149.402344 338.332031 149.417969 337.84375 149.363281 337.394531 C 149.125 337.25 148.890625 337.09375 148.65625 336.9375 " fill-opacity="1" fill-rule="nonzero"/><path fill="#444142" d="M 152.273438 339.203125 C 149.824219 342.628906 142.074219 353.664062 144.734375 354.597656 C 145.449219 354.84375 145.304688 352.71875 145.019531 352.375 C 145.367188 352.800781 145.375 353.289062 145.328125 353.574219 C 145.367188 353.46875 145.433594 353.3125 145.523438 353.101562 C 145.765625 352.554688 146.050781 352.027344 146.328125 351.488281 C 147.140625 349.925781 148.035156 348.386719 148.929688 346.855469 C 150.3125 344.46875 151.753906 342.109375 153.226562 339.765625 C 152.910156 339.585938 152.59375 339.390625 152.273438 339.203125 " fill-opacity="1" fill-rule="nonzero"/><path fill="#444142" d="M 156.113281 341.386719 C 153.949219 344.566406 151.867188 347.792969 150.039062 351.1875 C 148.964844 353.164062 147.628906 355.078125 148.335938 357.359375 C 148.433594 357.675781 148.734375 357.9375 148.964844 357.5625 C 149.132812 357.269531 149.328125 356.976562 149.515625 356.699219 C 149.621094 356.542969 149.71875 355.746094 149.628906 355.21875 C 150.0625 354.605469 150.582031 353.605469 150.589844 353.589844 C 151.175781 352.382812 151.835938 351.210938 152.484375 350.046875 C 153.773438 347.75 155.195312 345.527344 156.617188 343.324219 C 156.796875 343.054688 156.757812 342.199219 156.609375 341.652344 L 156.113281 341.386719 " fill-opacity="1" fill-rule="nonzero"/><path fill="#444142" d="M 159.246094 343.46875 C 156.652344 348.054688 150.3125 354.679688 152.085938 360.445312 C 152.355469 361.316406 152.796875 360.273438 152.8125 359.882812 C 152.941406 354.6875 157.308594 349.84375 159.675781 345.421875 C 159.929688 344.949219 159.605469 342.835938 159.246094 343.46875 " fill-opacity="1" fill-rule="nonzero"/><path fill="#444142" d="M 165.835938 346.171875 C 165.519531 346.015625 165.210938 345.855469 164.910156 345.691406 C 162.042969 350.4375 158.675781 354.851562 156.472656 359.972656 C 156.335938 360.296875 156.308594 362.863281 157.035156 362.382812 C 157.773438 361.902344 158.214844 361.414062 158.734375 360.722656 C 158.90625 360.484375 158.921875 359.246094 158.667969 358.875 C 160.785156 354.589844 163.527344 350.632812 165.777344 346.425781 L 165.835938 346.171875 " fill-opacity="1" fill-rule="nonzero"/><path fill="#444142" d="M 170.8125 347.859375 C 170.457031 347.769531 170.105469 347.679688 169.757812 347.582031 C 166.59375 353.101562 162.648438 358.179688 160.476562 364.214844 C 160.328125 364.628906 160.457031 367.421875 161.175781 366.511719 C 161.558594 366.03125 161.929688 365.550781 162.296875 365.054688 C 162.445312 364.875 162.476562 364.15625 162.386719 363.59375 C 164.828125 358.15625 168.164062 353.214844 170.8125 347.859375 " fill-opacity="1" fill-rule="nonzero"/><path fill="#444142" d="M 175.078125 348.761719 L 174.664062 348.679688 C 170.570312 354.417969 166.371094 360.183594 163.417969 366.601562 C 163.242188 367.007812 163.355469 369.792969 163.882812 369.230469 C 164.671875 368.382812 164.566406 368.5625 165.105469 367.519531 C 165.167969 367.390625 165.191406 366.894531 165.160156 366.4375 C 168.023438 360.3125 171.976562 354.777344 175.078125 348.761719 " fill-opacity="1" fill-rule="nonzero"/><path fill="#444142" d="M 179.144531 349.429688 L 178.84375 349.394531 C 175.078125 355.257812 171.320312 361.21875 168.535156 367.617188 C 168.390625 367.941406 168.601562 370.34375 169.066406 369.832031 C 169.847656 368.992188 169.863281 368.96875 170.53125 367.976562 C 170.644531 367.804688 170.660156 367.121094 170.570312 366.640625 C 173.253906 360.8125 176.402344 355.234375 179.144531 349.429688 " fill-opacity="1" fill-rule="nonzero"/><path fill="#444142" d="M 184.796875 349.972656 C 184.488281 349.957031 184.171875 349.941406 183.855469 349.925781 C 179.210938 355.65625 176.125 363.042969 172.605469 369.367188 C 172.207031 370.09375 172.660156 372.722656 173.222656 371.925781 L 173.230469 371.988281 C 176.957031 364.554688 180.878906 357.285156 184.796875 349.972656 " fill-opacity="1" fill-rule="nonzero"/><path fill="#444142" d="M 188.808594 240.410156 C 187.148438 243.226562 184.113281 246.199219 184.210938 249.683594 C 184.222656 249.742188 184.351562 250.742188 184.585938 250.472656 C 184.855469 250.164062 184.902344 249.953125 185.019531 249.546875 C 185.3125 248.542969 185.800781 247.632812 186.296875 246.726562 C 187.191406 245.09375 188.265625 243.5625 189.144531 241.917969 C 189.328125 241.574219 189.09375 239.921875 188.808594 240.410156 " fill-opacity="1" fill-rule="nonzero"/><path fill="#444142" d="M 194.722656 236.875 C 192.265625 241.550781 188.921875 245.914062 187.078125 250.878906 C 186.96875 251.175781 187.164062 252.988281 187.507812 252.402344 C 190.183594 247.867188 192.707031 243.089844 195.039062 238.367188 C 195.21875 238.007812 194.96875 236.40625 194.722656 236.875 " fill-opacity="1" fill-rule="nonzero"/><path fill="#444142" d="M 200.101562 238.824219 C 199.988281 238.292969 199.890625 237.757812 199.816406 237.210938 C 197.847656 240.777344 195.804688 244.292969 193.984375 247.933594 C 193.089844 249.726562 190.867188 252.820312 192.273438 254.871094 C 192.4375 255.097656 192.566406 255.058594 192.714844 254.863281 L 193.113281 254.488281 C 193.347656 254.300781 193.445312 253.308594 193.300781 252.746094 C 195.242188 247.957031 197.726562 243.414062 200.101562 238.824219 " fill-opacity="1" fill-rule="nonzero"/><path fill="#444142" d="M 201.546875 243.59375 C 198.953125 247.558594 194.535156 252.597656 195.535156 257.289062 C 195.667969 257.921875 196.023438 257.859375 196.148438 257.273438 C 197.171875 252.566406 199.78125 248.804688 202.0625 244.667969 C 201.890625 244.320312 201.703125 243.960938 201.546875 243.59375 " fill-opacity="1" fill-rule="nonzero"/><path fill="#444142" d="M 204.28125 248.480469 C 202.539062 250.863281 200.628906 253.128906 199.230469 255.75 C 198.636719 256.863281 197.449219 259.851562 198.824219 260.863281 C 199.304688 261.210938 199.238281 259.445312 199.207031 259.292969 C 198.914062 258.003906 201.003906 255.34375 201.644531 254.300781 C 202.621094 252.722656 203.710938 251.207031 204.714844 249.636719 L 204.785156 249.21875 C 204.617188 248.976562 204.445312 248.722656 204.28125 248.480469 " fill-opacity="1" fill-rule="nonzero"/><path fill="#444142" d="M 206.265625 253.820312 C 204.527344 256.996094 200.214844 260.667969 201.167969 264.671875 C 201.320312 265.347656 201.726562 265.347656 201.847656 264.664062 C 202.460938 261.1875 205.085938 258.527344 206.632812 255.457031 C 206.828125 255.066406 206.566406 253.289062 206.265625 253.820312 " fill-opacity="1" fill-rule="nonzero"/><path fill="#444142" d="M 209.128906 255.609375 C 208.375 257.003906 200.792969 267.433594 204.121094 268.636719 C 204.5 268.777344 204.410156 267.253906 204.378906 267.125 C 204.386719 267.15625 204.8125 265.738281 205.007812 265.300781 C 205.476562 264.175781 206.0625 263.085938 206.632812 262.011719 C 207.542969 260.316406 208.585938 258.695312 209.441406 256.972656 C 209.601562 256.644531 209.375 255.164062 209.128906 255.609375 " fill-opacity="1" fill-rule="nonzero"/><path fill="#444142" d="M 212.285156 257.265625 L 212.214844 257.320312 C 209.113281 262.230469 204.800781 266.832031 204.144531 272.839844 C 204.09375 273.304688 204.589844 275.804688 205.0625 274.355469 C 206.820312 268.964844 209.910156 264.746094 212.773438 259.917969 C 212.960938 259.601562 212.929688 258.671875 212.792969 257.980469 C 212.621094 257.746094 212.457031 257.5 212.285156 257.265625 " fill-opacity="1" fill-rule="nonzero"/><path fill="#444142" d="M 190.882812 283.945312 C 189.542969 286.597656 187.75 289.023438 186.164062 291.53125 C 184.847656 293.617188 183.164062 296.066406 183.058594 298.617188 C 183.03125 299.308594 183.601562 301.3125 183.992188 299.65625 C 185.179688 294.601562 189.132812 290.464844 191.324219 285.832031 C 191.542969 285.359375 191.207031 283.308594 190.882812 283.945312 " fill-opacity="1" fill-rule="nonzero"/><path fill="#444142" d="M 201.15625 275.671875 C 197.960938 282.511719 194.128906 288.960938 190.46875 295.554688 C 189.09375 298.023438 186.53125 301.1875 186.71875 304.183594 C 186.742188 304.453125 186.773438 305.4375 187.222656 305.4375 L 187.351562 305.4375 C 188.027344 305.445312 187.726562 303.566406 187.515625 303.25 L 187.402344 303.078125 C 187.417969 303.800781 187.441406 304.535156 187.457031 305.257812 C 192.378906 295.914062 197.367188 286.296875 201.402344 276.527344 C 201.484375 276.332031 201.296875 275.355469 201.15625 275.671875 " fill-opacity="1" fill-rule="nonzero"/><path fill="#444142" d="M 215.050781 260.675781 C 210.171875 267.597656 206.371094 275.09375 202.425781 282.585938 C 198.523438 289.992188 193.292969 296.859375 191.835938 305.269531 C 191.714844 305.992188 192.378906 308.265625 192.730469 306.578125 C 194.570312 297.71875 200.246094 289.976562 204.28125 282 C 207.851562 274.957031 211.34375 267.921875 215.671875 261.300781 C 215.46875 261.097656 215.246094 260.886719 215.050781 260.675781 " fill-opacity="1" fill-rule="nonzero"/><path fill="#444142" d="M 219.925781 265.046875 C 219.582031 264.785156 219.25 264.519531 218.925781 264.25 C 210.660156 278.097656 201.664062 291.636719 195.640625 306.585938 C 195.429688 307.089844 195.789062 310.121094 196.472656 309.070312 C 196.878906 308.441406 197.285156 307.808594 197.699219 307.179688 C 197.796875 307.035156 197.832031 306.5625 197.804688 306.089844 C 204.121094 291.867188 212.238281 278.621094 219.925781 265.046875 " fill-opacity="1" fill-rule="nonzero"/><path fill="#444142" d="M 223.441406 267.554688 C 219.542969 275.191406 214.824219 282.355469 210.433594 289.707031 C 207.25 295.027344 203.28125 299.722656 202.710938 306.097656 C 202.65625 306.726562 203.273438 308.378906 203.550781 306.976562 C 204.925781 299.894531 209.765625 293.871094 213.320312 287.730469 C 217.085938 281.21875 220.992188 274.859375 224.203125 268.050781 C 223.945312 267.890625 223.691406 267.71875 223.441406 267.554688 " fill-opacity="1" fill-rule="nonzero"/><path fill="#444142" d="M 219.289062 286.6875 L 219.617188 286.605469 L 219.65625 286.515625 C 220.65625 283.675781 221.453125 281.160156 223.050781 278.546875 C 224.578125 276.039062 226.335938 273.6875 227.875 271.179688 C 227.972656 271.023438 227.988281 270.648438 227.964844 270.273438 C 227.679688 270.121094 227.394531 269.957031 227.109375 269.792969 C 224.007812 274.363281 218.113281 280.257812 219.070312 286.101562 L 219.289062 286.6875 " fill-opacity="1" fill-rule="nonzero"/><path fill="#444142" d="M 230.207031 271.445312 L 230.136719 271.503906 C 228.238281 274.402344 225.984375 277.023438 224.179688 279.972656 C 223.734375 280.695312 221.511719 284.90625 223.179688 285.53125 C 223.414062 285.621094 223.511719 285.296875 223.539062 285.109375 C 223.832031 283.121094 225.148438 281.316406 226.222656 279.660156 C 227.613281 277.503906 229.183594 275.453125 230.527344 273.253906 C 230.703125 272.960938 230.605469 271.917969 230.410156 271.542969 L 230.207031 271.445312 " fill-opacity="1" fill-rule="nonzero"/><path fill="#444142" d="M 233.933594 273.367188 C 232.007812 276.097656 230.019531 278.765625 228.09375 281.484375 C 226.785156 283.316406 224.621094 285.695312 223.878906 288 C 224.351562 288.277344 224.832031 288.5625 225.277344 288.886719 L 225.222656 288.488281 C 225.710938 287.691406 226.367188 286.867188 226.6875 286.320312 C 227.476562 284.996094 228.320312 283.699219 229.152344 282.398438 C 230.835938 279.808594 232.566406 277.261719 234.226562 274.671875 C 234.421875 274.371094 234.234375 272.9375 233.933594 273.367188 " fill-opacity="1" fill-rule="nonzero"/><path fill="#444142" d="M 228.808594 290.875 C 228.761719 290.605469 228.6875 290.375 228.605469 290.269531 C 228.761719 290.457031 228.800781 290.679688 228.808594 290.875 Z M 237.449219 274.875 C 234.878906 278.359375 232.25 281.785156 229.914062 285.425781 C 229.785156 285.628906 228.019531 288.984375 227.671875 290.980469 C 227.953125 291.257812 228.246094 291.53125 228.507812 291.824219 L 228.742188 292.136719 C 228.882812 291.816406 228.882812 291.304688 228.808594 290.882812 L 228.898438 290.621094 C 229.160156 289.960938 229.53125 289.328125 229.867188 288.707031 C 230.777344 287.039062 231.8125 285.425781 232.835938 283.832031 C 234.445312 281.347656 236.15625 278.921875 237.804688 276.46875 C 238.050781 276.113281 237.824219 274.355469 237.449219 274.875 " fill-opacity="1" fill-rule="nonzero"/><path fill="#444142" d="M 242.832031 276.105469 C 238.488281 282.382812 234.21875 288.714844 231.566406 295.921875 C 231.453125 296.222656 231.550781 298.902344 232.128906 298.339844 C 232.519531 297.964844 232.910156 297.589844 233.292969 297.214844 C 233.585938 296.929688 233.609375 295.734375 233.414062 295.113281 C 236 288.730469 239.734375 282.886719 243.453125 277.082031 C 243.535156 276.941406 243.550781 276.601562 243.507812 276.265625 C 243.289062 276.21875 243.0625 276.160156 242.832031 276.105469 " fill-opacity="1" fill-rule="nonzero"/><path fill="#444142" d="M 248.609375 278.496094 C 245.761719 282.082031 243.035156 285.726562 240.628906 289.621094 C 239.296875 291.777344 236.992188 294.644531 237.757812 297.347656 C 237.839844 297.621094 238.132812 298.371094 238.457031 297.828125 C 238.644531 297.507812 238.824219 297.199219 239.019531 296.875 C 239.148438 296.652344 239.285156 294.804688 238.773438 294.96875 C 238.417969 295.089844 238.300781 295.113281 238.007812 295.308594 C 238.222656 295.636719 238.433594 295.945312 238.644531 296.261719 C 238.660156 296.417969 240.335938 293.46875 240.5625 293.03125 C 241.351562 291.523438 242.238281 290.082031 243.125 288.640625 C 244.90625 285.769531 246.910156 283.015625 248.917969 280.304688 C 249.203125 279.90625 248.8125 278.246094 248.609375 278.496094 " fill-opacity="1" fill-rule="nonzero"/><path fill="#444142" d="M 253.914062 277.570312 C 250.359375 282.789062 246.378906 288.242188 244.371094 294.179688 C 244.25 294.535156 244.453125 296.921875 244.964844 296.117188 C 246.8125 293.210938 248.179688 289.929688 249.910156 286.925781 C 251.683594 283.824219 253.554688 280.761719 255.28125 277.625 L 255.3125 277.511719 C 254.839844 277.527344 254.378906 277.570312 253.914062 277.570312 " fill-opacity="1" fill-rule="nonzero"/><path fill="#444142" d="M 157.441406 225.316406 L 157.449219 225.316406 C 158.71875 224.117188 159.394531 222.066406 160.269531 220.5625 C 161.476562 218.507812 162.792969 216.523438 164.136719 214.558594 C 164.371094 214.195312 164.152344 212.417969 163.761719 212.941406 C 161.378906 216.148438 158.1875 219.8125 157.074219 223.710938 C 157.050781 223.816406 157.042969 224.535156 157.140625 224.980469 L 157.441406 225.316406 " fill-opacity="1" fill-rule="nonzero"/><path fill="#444142" d="M 160.726562 228.914062 C 161.777344 221.789062 167.835938 216.285156 171.660156 210.464844 C 171.878906 210.140625 171.675781 208.527344 171.34375 209 C 168.421875 213.0625 164.980469 216.695312 162.265625 220.902344 C 161.175781 222.597656 159.515625 225.542969 159.816406 227.914062 C 160.117188 228.246094 160.417969 228.582031 160.726562 228.914062 " fill-opacity="1" fill-rule="nonzero"/><path fill="#444142" d="M 172.660156 213.386719 C 172.675781 212.507812 172.765625 211.628906 172.914062 210.75 C 168.464844 216.75 159.507812 229.476562 163.410156 230.972656 C 163.90625 231.167969 163.816406 229.792969 163.761719 229.574219 C 162.964844 226.902344 167.871094 220.796875 169.210938 218.6875 C 170.335938 216.90625 171.488281 215.148438 172.660156 213.386719 " fill-opacity="1" fill-rule="nonzero"/><path fill="#444142" d="M 172.726562 218.386719 C 170.035156 222.402344 166.160156 226.535156 165.761719 231.292969 C 165.730469 231.714844 166.070312 233.742188 166.585938 232.554688 C 167.65625 230.085938 168.640625 227.765625 170.082031 225.460938 C 171.203125 223.664062 172.367188 221.894531 173.441406 220.074219 C 173.164062 219.519531 172.929688 218.957031 172.726562 218.386719 " fill-opacity="1" fill-rule="nonzero"/><path fill="#444142" d="M 169.324219 237.976562 C 170.113281 233.019531 174.085938 229.125 176.558594 224.800781 C 176.3125 224.507812 176.085938 224.199219 175.875 223.898438 C 172.996094 227.9375 168.242188 232.164062 168.421875 237.082031 C 168.722656 237.390625 169.023438 237.683594 169.324219 237.976562 " fill-opacity="1" fill-rule="nonzero"/><path fill="#444142" d="M 178.875 227.839844 C 176.835938 231.070312 173.394531 234.296875 172.742188 238.1875 C 172.703125 238.433594 172.914062 240.710938 173.417969 239.875 C 174.378906 238.246094 175.003906 236.421875 175.996094 234.769531 C 177.078125 232.992188 178.242188 231.265625 179.242188 229.433594 C 179.445312 229.070312 179.210938 227.300781 178.875 227.839844 " fill-opacity="1" fill-rule="nonzero"/><path fill="#444142" d="M 182.722656 229.445312 C 181.113281 231.445312 179.324219 233.3125 177.800781 235.386719 C 176.972656 236.519531 174.90625 239.832031 176.605469 241.125 C 177.101562 241.5 177.117188 239.816406 177.101562 239.660156 C 177.207031 240.417969 177.078125 240.011719 177.234375 239.589844 C 177.4375 239.035156 177.777344 238.511719 178.078125 238.015625 C 178.6875 236.984375 179.40625 236.015625 180.097656 235.027344 C 181.324219 233.300781 182.660156 231.632812 183.804688 229.84375 C 183.441406 229.71875 183.082031 229.589844 182.722656 229.445312 " fill-opacity="1" fill-rule="nonzero"/><path fill="#444142" d="M 186.132812 231.382812 C 183.496094 234.664062 181.074219 238.105469 178.804688 241.648438 C 178.40625 242.265625 178.414062 243.691406 178.859375 244.277344 L 178.949219 244.390625 C 179.136719 244.636719 179.308594 244.628906 179.488281 244.375 L 179.964844 243.902344 C 180.128906 243.78125 180.234375 243.339844 180.265625 242.878906 C 182.429688 239.359375 184.628906 235.867188 187.117188 232.570312 C 187.253906 232.382812 187.261719 231.960938 187.207031 231.535156 C 186.839844 231.496094 186.484375 231.445312 186.132812 231.382812 " fill-opacity="1" fill-rule="nonzero"/><path fill="#444142" d="M 190.6875 230.785156 C 189.5 232.554688 188.117188 234.199219 186.980469 236.003906 C 186.09375 237.429688 184.863281 240.050781 185.953125 241.679688 C 186.246094 242.105469 186.449219 241.484375 186.507812 241.257812 C 187.417969 237.421875 190.273438 234.710938 192.03125 231.257812 C 192.085938 231.144531 192.113281 230.925781 192.113281 230.671875 C 191.640625 230.730469 191.160156 230.769531 190.6875 230.785156 " fill-opacity="1" fill-rule="nonzero"/><path fill="#444142" d="M 195.632812 230.828125 C 193.894531 233.433594 191.882812 235.972656 190.785156 238.929688 C 190.648438 239.3125 190.972656 241.46875 191.339844 240.753906 C 192.777344 237.945312 194.367188 235.28125 196.023438 232.59375 C 196.261719 232.195312 196.007812 230.265625 195.632812 230.828125 " fill-opacity="1" fill-rule="nonzero"/><path fill="#444142" d="M 46.097656 247.8125 C 53.117188 243.421875 80.035156 225.941406 67.90625 214.398438 C 62.945312 209.667969 55.214844 209.316406 48.847656 207.933594 C 40.386719 206.085938 35.554688 199.578125 41.605469 189.808594 C 45.414062 183.679688 52.492188 180.332031 59.511719 180.511719 C 80.050781 181.039062 68.019531 217.085938 86.519531 216.222656 C 99.453125 215.617188 111.6875 197.558594 118.5625 188.3125 C 121.851562 183.898438 124.890625 179.324219 127.128906 174.292969 C 130.367188 167.019531 134.742188 154.125 143.773438 152.820312 C 151.160156 151.761719 149.0625 163.488281 149.890625 167.160156 C 150.589844 170.246094 151.875 172.238281 154.171875 174.316406 C 159.871094 179.445312 172.472656 175.554688 175.890625 169.308594 C 178.085938 165.292969 179.257812 159.652344 177.324219 155.230469 C 173.554688 146.648438 165.558594 145.992188 157.195312 144.824219 C 153.175781 144.265625 146.082031 140.851562 151.414062 134.453125 C 153.257812 132.246094 157.609375 130.300781 160.019531 128.707031 C 168.234375 123.242188 171.929688 121.679688 178.429688 128.933594 C 185.515625 136.839844 193.625 146.835938 205.429688 141.5625 C 209.292969 139.835938 210.246094 133.542969 210.578125 129.886719 C 211.75 117.332031 219.015625 116.207031 229.085938 119.578125 C 233.015625 120.890625 236.15625 123.324219 239.164062 126.042969 C 246.867188 132.996094 241.359375 140.414062 233.925781 142.96875 C 227.554688 145.167969 221.046875 145.609375 215.167969 149.148438 C 207.40625 153.832031 206.503906 163.453125 212.960938 169.707031 C 218.46875 175.046875 226.988281 177.246094 233.046875 182.1875 C 242.132812 189.613281 248.527344 199.929688 254.628906 209.789062 C 255.6875 211.5 256.25 205.578125 255.566406 204.351562 C 249.644531 193.675781 242.582031 183.914062 233.46875 175.730469 C 229.738281 172.378906 225.539062 170.082031 221.054688 167.933594 C 215.257812 165.15625 206.308594 161.28125 213.945312 153.902344 C 219.550781 148.480469 231.28125 151.394531 238.019531 147.910156 C 244.109375 144.761719 246.769531 138.972656 245.589844 132.238281 C 243.347656 119.488281 225.109375 104.546875 212.464844 114.074219 C 204.273438 120.253906 213.945312 134.761719 200.953125 137.988281 C 194.648438 139.550781 188.558594 133.492188 184.667969 129.480469 C 182.058594 126.777344 177.085938 118.503906 173.34375 117.722656 C 167.074219 116.417969 150.890625 125.59375 148.996094 131.726562 C 147.523438 136.519531 146.613281 144.824219 151.144531 148.53125 C 155.96875 152.488281 184.976562 153.976562 172.125 166.140625 C 167.59375 170.421875 159.890625 170.726562 154.617188 167.980469 C 151.746094 166.484375 151.707031 154.953125 150.550781 151.136719 C 148.613281 144.738281 141.40625 145.882812 137.5 149.085938 C 131.425781 154.066406 128.339844 163.039062 125.265625 169.992188 C 119.472656 183.085938 108.101562 195.738281 97.046875 204.539062 C 93.019531 207.738281 87.285156 211.253906 82.117188 208.753906 C 75.910156 205.75 75.773438 192.445312 73.761719 186.464844 C 68.199219 169.871094 49.300781 173.550781 40.335938 184.730469 C 34.164062 192.421875 33.773438 207.746094 43.582031 212.613281 C 49.683594 215.644531 57.191406 215.414062 63.601562 217.652344 C 71.722656 220.496094 63.367188 228.53125 59.949219 231.691406 C 55.132812 236.144531 50.691406 240.957031 45.753906 245.289062 C 45.242188 245.742188 45.390625 248.25 46.097656 247.8125 " fill-opacity="1" fill-rule="nonzero"/><g clip-path="url(#fc6a33b0ba)"><path fill="#444142" d="M 257.550781 211.402344 C 264.195312 220.308594 273.859375 225.789062 283.542969 230.882812 C 291.015625 234.808594 303.96875 241.078125 296.964844 252.535156 C 294.148438 257.125 288.585938 260.570312 284.117188 263.3125 C 264.238281 275.535156 241.957031 288.105469 230.371094 309.265625 C 230.027344 309.890625 230.039062 314.273438 231.199219 313.253906 C 236.1875 308.898438 239.734375 303.355469 244.234375 298.511719 C 250.359375 291.933594 257.792969 286.542969 265.089844 281.363281 C 275.382812 274.050781 290.457031 268.371094 298.347656 258.429688 C 302.976562 252.589844 303.164062 241.226562 298.121094 235.566406 C 292.675781 229.46875 285.289062 226.4375 278.214844 222.667969 C 270.800781 218.722656 264.816406 213.183594 257.898438 208.574219 C 257.183594 208.105469 257.234375 210.976562 257.550781 211.402344 " fill-opacity="1" fill-rule="nonzero"/></g><g clip-path="url(#49afaa9c51)"><path fill="#444142" d="M 227.867188 315.796875 C 225.886719 320.808594 225.9375 326.039062 229.898438 330.003906 C 232.738281 332.84375 237.832031 333.871094 241.441406 335.320312 C 253.890625 340.308594 247.796875 352.140625 240.613281 358.695312 C 235.910156 362.984375 230.085938 365.175781 224.042969 366.820312 C 212.367188 370.003906 209.285156 362.75 210.886719 351.636719 C 211.441406 347.800781 212.742188 339.429688 206.859375 339.308594 C 200.476562 339.179688 192.535156 347.457031 188.777344 351.929688 C 185.507812 355.820312 179.8125 368.335938 174.566406 369.417969 C 165.023438 371.394531 157.320312 365.011719 150.996094 359.167969 C 139.203125 348.28125 128.609375 336.410156 115.8125 326.617188 C 102.675781 316.558594 87.941406 308.207031 78.417969 294.269531 C 77.203125 292.492188 76.464844 298.574219 77.382812 299.910156 C 85.835938 312.097656 98.039062 320.199219 110.28125 328.21875 C 125.796875 338.378906 137.039062 351.902344 150.566406 364.3125 C 154.917969 368.300781 163.4375 375.367188 169.390625 375.394531 C 173.652344 375.410156 179.640625 375.546875 181.59375 370.929688 C 184.789062 363.359375 190.679688 356.675781 196.480469 350.953125 C 197.636719 349.8125 211.089844 338.84375 209.285156 345.902344 C 207.136719 354.332031 204.996094 368.390625 214.3125 373.359375 C 223.8125 378.421875 239.261719 367.4375 245.183594 361.136719 C 250.316406 355.671875 254.515625 345.539062 250.804688 338.128906 C 248.648438 333.820312 246.324219 331.394531 241.898438 329.417969 C 237.699219 327.542969 227.34375 326.09375 229.140625 319.066406 C 229.378906 318.1875 228.777344 313.457031 227.867188 315.796875 " fill-opacity="1" fill-rule="nonzero"/></g><path fill="#444142" d="M 77.699219 293.097656 C 82.703125 283.78125 99.476562 288.332031 101.617188 276.894531 C 103.140625 268.734375 100.691406 260.128906 93.929688 254.984375 C 84.753906 248 72.984375 253.859375 72.03125 264.625 C 71.257812 273.296875 65.082031 281.421875 58.363281 272.824219 C 56.242188 270.121094 54.605469 266.863281 52.742188 263.980469 C 51.058594 261.375 49.023438 259.21875 46.730469 257.132812 C 42.257812 253.054688 45.144531 252.085938 48.894531 248.65625 C 49.628906 247.992188 49.40625 243.382812 48.5625 243.742188 C 43.160156 246.078125 38.171875 251.148438 41.394531 257.523438 C 44.574219 263.828125 51.125 268.28125 55.054688 274.335938 C 58.023438 278.9375 60.128906 282.472656 66.109375 282.070312 C 70.84375 281.761719 72.226562 275.867188 72.949219 272.300781 C 74.210938 266.1875 73.820312 259.640625 80.898438 257.550781 C 85.039062 256.335938 90.132812 258.917969 93.546875 260.839844 C 100.503906 264.761719 100.84375 276.308594 92.945312 279.246094 C 90.246094 280.25 87.285156 280.6875 84.527344 281.519531 C 80.050781 282.863281 78.050781 285.832031 76.773438 290.035156 C 76.59375 290.605469 77.019531 294.367188 77.699219 293.097656 " fill-opacity="1" fill-rule="nonzero"/><path fill="#444142" d="M 120.597656 186.835938 C 126.503906 192.054688 133.757812 205.027344 142.519531 197.691406 C 145.269531 195.378906 146.660156 191.851562 149.46875 189.5 C 152.664062 186.796875 159.050781 186.765625 163.019531 186.796875 C 170.636719 186.871094 178.859375 192.984375 173.824219 202.609375 C 171.839844 206.433594 168.421875 208.371094 164.574219 209.660156 C 157.914062 211.882812 152.835938 213.851562 153.964844 221.660156 C 154.5625 225.796875 159.09375 228.996094 161.851562 231.648438 C 164.769531 234.449219 168.066406 236.753906 171.15625 239.34375 C 173.765625 241.527344 174.71875 244.691406 177.484375 246.605469 C 178.371094 247.21875 179.582031 241.625 177.605469 241.0625 C 170.546875 239.066406 162.582031 228.164062 158.089844 222.773438 C 153.8125 217.636719 164.4375 215.976562 168.261719 214.265625 C 174.882812 211.304688 178.632812 200.71875 176.738281 193.914062 C 173.328125 181.625 159.464844 180.347656 149.132812 184.820312 C 142.609375 187.652344 142.742188 198.625 133.476562 194.035156 C 128.429688 191.527344 125.226562 185.796875 120.890625 182.328125 C 120.199219 181.765625 119.660156 186.015625 120.597656 186.835938 " fill-opacity="1" fill-rule="nonzero"/><path fill="#444142" d="M 180.773438 249.21875 C 187.839844 253.722656 195.910156 259.363281 201.246094 265.886719 C 208.347656 274.574219 193.894531 278.578125 189.304688 280.949219 C 181.339844 285.058594 178.792969 296.09375 183.707031 303.574219 C 190.484375 313.898438 204.394531 315.414062 211.773438 304.722656 C 214.792969 300.359375 211.328125 290.652344 218.210938 288.871094 C 226.3125 286.761719 231.605469 301.277344 237.34375 304.046875 C 239.320312 305 239.132812 299.128906 237.902344 298.152344 C 234.089844 295.097656 218.476562 275.550781 213.082031 287.347656 C 210.171875 293.699219 212.734375 300.96875 205.289062 305.375 C 193.160156 312.5625 175.515625 295.125 190.011719 286.289062 C 197.734375 281.574219 205.28125 280.671875 205.347656 270.308594 C 205.4375 258.785156 190.355469 248.429688 181.074219 245.035156 C 179.910156 244.613281 179.902344 248.667969 180.773438 249.21875 " fill-opacity="1" fill-rule="nonzero"/><path fill="#444142" d="M 236.675781 217.09375 C 228.191406 213.535156 222.609375 207.304688 230.597656 198.066406 C 233.804688 194.367188 238.214844 191.566406 242.402344 189.140625 C 242.753906 188.9375 242.964844 188.441406 243.078125 187.804688 C 241.566406 186.667969 240.109375 185.503906 238.929688 184.09375 C 229.363281 190.730469 218.28125 203.355469 226.199219 214.648438 C 231.484375 222.171875 242.378906 223.425781 248.269531 230.730469 C 255.824219 240.09375 236.539062 243.519531 232.078125 243.429688 C 219.769531 243.1875 219.699219 230.101562 220.210938 220.992188 C 220.460938 216.441406 219.949219 210.578125 215.566406 208.25 C 208.910156 204.707031 203.5 218.605469 201.847656 222.230469 C 196.722656 233.464844 186.011719 240.6875 175.386719 246.050781 C 162.597656 252.515625 148.792969 252.613281 135.703125 257.550781 C 134.90625 257.851562 135.019531 259.933594 135.117188 260.527344 C 136.730469 270.046875 142.839844 272.960938 151.4375 275.792969 C 157.125 277.667969 167.308594 280.761719 162.71875 289.511719 C 158.976562 296.652344 147.726562 298.101562 141.382812 294.429688 C 138.46875 292.746094 131.253906 270.203125 124.5 275.527344 C 119.808594 279.222656 117.855469 284.71875 115.714844 290.132812 C 112.210938 298.941406 111.316406 312.277344 105.222656 319.566406 C 104.53125 320.386719 104.992188 324.171875 106.171875 322.933594 C 109.941406 318.996094 111.046875 312.652344 112.707031 307.628906 C 114.21875 303.011719 115.714844 298.394531 117.367188 293.828125 C 118.230469 291.539062 119.164062 289.285156 120.175781 287.0625 C 126.308594 272.960938 130.367188 281.109375 133.289062 287.671875 C 138.445312 299.257812 144.035156 306.984375 158 300.796875 C 166.476562 297.042969 169.023438 285.574219 165.191406 277.796875 C 160.386719 268.066406 141.878906 271.121094 137.695312 261.832031 C 159.191406 256.011719 183.367188 254.375 198.066406 234.816406 C 200.824219 231.152344 202.898438 227.390625 204.792969 223.230469 C 206.085938 220.390625 207.558594 217.972656 209.714844 215.652344 C 215.417969 209.546875 218.183594 220.578125 217.730469 225.265625 C 217.128906 231.519531 216.558594 240.550781 222.039062 245.066406 C 233.363281 254.390625 254.351562 248.007812 251.945312 231.730469 C 250.75 223.679688 243.355469 219.886719 236.675781 217.09375 " fill-opacity="1" fill-rule="nonzero"/><path fill="#444142" d="M 130.425781 172.84375 C 129.1875 174.550781 128.253906 176.390625 127.382812 178.3125 C 126.421875 180.421875 125.453125 184.09375 123.671875 185.648438 C 123.828125 186.152344 123.988281 186.660156 124.144531 187.164062 L 124.183594 186.953125 C 124.21875 186.804688 124.25 185.453125 123.859375 185.582031 L 123.777344 185.609375 C 123.222656 185.789062 123.28125 187.375 123.722656 187.660156 L 123.800781 187.699219 L 124.101562 187.585938 C 126.722656 183.164062 128.164062 178.148438 130.539062 173.597656 L 130.425781 172.84375 " fill-opacity="1" fill-rule="nonzero"/><path fill="#444142" d="M 132.179688 176.523438 C 130.621094 178.085938 129.863281 180.738281 128.925781 182.71875 C 127.992188 184.679688 126.804688 186.570312 125.964844 188.570312 C 125.777344 189.019531 126.195312 191.152344 126.550781 190.421875 C 127.503906 188.472656 128.445312 186.535156 129.332031 184.558594 C 130.335938 182.351562 131.058594 179.785156 132.382812 177.769531 C 132.53125 177.546875 132.382812 176.328125 132.179688 176.523438 " fill-opacity="1" fill-rule="nonzero"/><path fill="#444142" d="M 134.636719 180.210938 C 133.335938 182.035156 132.464844 184.214844 131.523438 186.234375 C 130.628906 188.125 129.269531 190.265625 128.863281 192.332031 C 128.765625 192.804688 129.148438 195.207031 129.722656 193.914062 C 131.5625 189.777344 132.960938 185.429688 134.890625 181.316406 C 134.996094 181.097656 134.914062 179.828125 134.636719 180.210938 " fill-opacity="1" fill-rule="nonzero"/><path fill="#444142" d="M 137.589844 183.085938 C 136.417969 185.113281 135.664062 187.308594 134.710938 189.441406 C 133.757812 191.585938 132.644531 193.570312 132.335938 195.914062 C 132.304688 196.175781 132.605469 198.15625 133.109375 197.332031 L 133.335938 196.949219 C 133.554688 196.574219 133.695312 195.394531 133.199219 195.140625 L 132.9375 195.019531 C 133.050781 195.640625 133.164062 196.257812 133.28125 196.875 C 133.710938 194.847656 134.628906 193.058594 135.386719 191.152344 C 136.25 188.96875 136.925781 186.714844 137.949219 184.613281 C 138.128906 184.257812 137.898438 182.554688 137.589844 183.085938 " fill-opacity="1" fill-rule="nonzero"/><path fill="#444142" d="M 140.949219 185.128906 C 139.601562 187.464844 138.679688 190.003906 137.378906 192.359375 C 136.558594 193.855469 135.882812 195.394531 136.355469 197.121094 C 136.417969 197.371094 136.523438 197.738281 136.828125 197.78125 L 137.011719 197.8125 C 137.648438 197.902344 137.363281 196.109375 137.28125 195.867188 C 137.226562 195.710938 138.476562 193.488281 138.640625 193.089844 C 139.511719 190.949219 140.308594 188.800781 141.316406 186.722656 C 141.503906 186.347656 141.269531 184.574219 140.949219 185.128906 " fill-opacity="1" fill-rule="nonzero"/><path fill="#444142" d="M 144.34375 187.292969 C 143.15625 189.546875 142.074219 191.835938 141.570312 194.351562 C 141.488281 194.734375 141.886719 196.679688 142.21875 195.640625 C 142.925781 193.449219 143.78125 191.339844 144.808594 189.289062 C 145.042969 188.816406 145.035156 188.195312 144.921875 187.691406 C 144.863281 187.480469 144.585938 186.820312 144.34375 187.292969 " fill-opacity="1" fill-rule="nonzero"/></svg>