<svg xmlns="http://www.w3.org/2000/svg" xmlns:xlink="http://www.w3.org/1999/xlink" width="448" zoomAndPan="magnify" viewBox="0 0 336 479.999983" height="640" preserveAspectRatio="xMidYMid meet" version="1.0"><defs><clipPath id="e5008b9e9f"><path d="M 33.601562 126.769531 L 300 126.769531 L 300 353.269531 L 33.601562 353.269531 Z M 33.601562 126.769531 " clip-rule="nonzero"/></clipPath><clipPath id="22c4220483"><path d="M 39.238281 126.769531 L 294 126.769531 L 294 353.269531 L 39.238281 353.269531 Z M 39.238281 126.769531 " clip-rule="nonzero"/></clipPath><clipPath id="9289af0016"><path d="M 37 126.769531 L 208 126.769531 L 208 353 L 37 353 Z M 37 126.769531 " clip-rule="nonzero"/></clipPath><clipPath id="a5b4fe6c20"><path d="M 115.398438 126.769531 L 295.96875 126.769531 L 295.96875 353.269531 L 115.398438 353.269531 Z M 115.398438 126.769531 " clip-rule="nonzero"/></clipPath><clipPath id="78772b0286"><path d="M 129 126.769531 L 139 126.769531 L 139 131 L 129 131 Z M 129 126.769531 " clip-rule="nonzero"/></clipPath><clipPath id="f64a8b4fe1"><path d="M 212 348 L 220 348 L 220 353.269531 L 212 353.269531 Z M 212 348 " clip-rule="nonzero"/></clipPath></defs><rect x="-33.6" width="403.2" fill="#ffffff" y="-47.999998" height="575.99998" fill-opacity="1"/><rect x="-33.6" width="403.2" fill="#ffffff" y="-47.999998" height="575.99998" fill-opacity="1"/><g clip-path="url(#e5008b9e9f)"><path fill="#282828" d="M 298 287.996094 C 295.234375 279.253906 289.511719 271.101562 280.992188 263.757812 C 273.851562 257.605469 264.589844 251.894531 253.472656 246.785156 C 233.53125 237.617188 211.875 232.261719 198.953125 229.070312 L 198.941406 229.066406 C 196.089844 228.359375 193.628906 227.75 191.832031 227.257812 C 190.136719 226.792969 187.566406 226.144531 184.320312 225.324219 C 167.773438 221.144531 133.421875 212.464844 122.957031 204.882812 C 122.25 204.371094 121.832031 203.757812 121.777344 203.152344 L 121.773438 203.097656 C 121.707031 202.148438 122.382812 201.238281 123.589844 200.65625 C 124.988281 199.984375 126.84375 199.316406 129.097656 198.664062 C 131.3125 198.023438 133.613281 197.363281 135.839844 196.726562 L 135.90625 196.707031 C 153.078125 191.78125 170.835938 186.6875 185.046875 180.941406 C 192.941406 177.746094 198.910156 174.683594 203.292969 171.578125 C 208.574219 167.839844 211.566406 163.949219 212.1875 160.027344 C 213.207031 153.542969 207.925781 147.214844 196.496094 141.222656 C 193.628906 139.714844 190.871094 138.34375 188.289062 137.132812 C 187.867188 136.921875 187.40625 136.703125 186.84375 136.445312 C 185.09375 135.5625 183.382812 134.703125 181.742188 133.875 C 174.277344 130.121094 171.121094 128.632812 168.410156 127.304688 L 167.320312 126.769531 L 89.570312 126.769531 L 139.589844 151.910156 C 140.789062 152.511719 141.699219 153.316406 142.171875 154.191406 C 142.496094 155.636719 140.175781 156.503906 139.90625 156.597656 L 139.882812 156.605469 C 135.609375 158.09375 128.070312 159.789062 118.523438 161.9375 C 115.628906 162.589844 112.632812 163.261719 109.453125 163.992188 C 103.449219 165.371094 98.195312 166.667969 93.394531 167.949219 C 82.648438 170.625 75.875 172.367188 73.261719 173.128906 C 66.390625 175.003906 56.539062 178.117188 48.585938 182.289062 C 38.6875 187.480469 33.683594 193.222656 33.710938 199.359375 C 33.75 207.085938 39.53125 214.921875 50.917969 222.652344 C 59.644531 228.574219 69.316406 232.867188 73.972656 234.925781 L 74.082031 234.976562 C 74.433594 235.132812 74.753906 235.273438 75.023438 235.398438 C 94.410156 244.351562 117.871094 252.925781 140.617188 261.242188 C 157.597656 267.445312 173.664062 273.316406 185.511719 278.496094 C 195.546875 282.886719 200.917969 288.289062 201.464844 294.558594 C 202.199219 303.015625 194.917969 313.40625 179.804688 325.441406 C 168.378906 334.539062 154.824219 342.605469 145.460938 347.773438 C 143.335938 348.949219 141.058594 350.039062 138.316406 351.167969 L 134.3125 352.660156 L 140.210938 352.707031 L 272.257812 353.28125 L 273.703125 351.832031 C 277.601562 347.929688 283.949219 341.316406 291 329.207031 C 299.621094 314.410156 301.964844 300.546875 298 287.996094 " fill-opacity="1" fill-rule="nonzero"/></g><path fill="#fad212" d="M 155.320312 347.785156 C 152.171875 349.613281 149.210938 351.273438 146.582031 352.714844 L 146.773438 352.714844 C 149.371094 351.265625 152.257812 349.613281 155.320312 347.785156 " fill-opacity="1" fill-rule="nonzero"/><g clip-path="url(#22c4220483)"><path fill="#282828" d="M 264.171875 353.222656 C 274.199219 343.667969 300.371094 315.320312 292.019531 288.847656 C 281.007812 253.9375 222.132812 239.367188 197.074219 233.167969 C 194.164062 232.449219 191.652344 231.824219 189.757812 231.304688 C 188.140625 230.859375 185.605469 230.21875 182.398438 229.410156 C 165.414062 225.113281 130.144531 216.199219 118.679688 207.886719 C 116.925781 206.617188 115.878906 205 115.742188 203.335938 L 115.734375 203.246094 C 115.5625 200.789062 117.214844 198.480469 120.15625 197.070312 C 121.898438 196.234375 124.113281 195.425781 126.75 194.664062 C 128.984375 194.019531 131.261719 193.367188 133.566406 192.707031 C 150.371094 187.886719 167.75 182.90625 181.609375 177.335938 C 197.234375 171.058594 205.269531 165.210938 206.179688 159.460938 C 206.941406 154.628906 202.496094 149.640625 192.96875 144.640625 C 190.164062 143.167969 187.472656 141.828125 184.96875 140.65625 L 184.90625 140.625 C 184.519531 140.433594 184.082031 140.226562 183.523438 139.96875 L 183.484375 139.949219 L 183.972656 139.398438 L 183.449219 139.929688 C 173.929688 135.140625 160.894531 128.652344 157.089844 126.769531 L 100.234375 126.769531 L 143.011719 148.429688 C 145.339844 149.59375 147.097656 151.230469 147.953125 153.03125 L 147.992188 153.121094 C 149.578125 157.839844 143.367188 160.191406 142.652344 160.445312 L 142.421875 160.523438 C 137.710938 162.136719 130.066406 163.855469 120.421875 166.023438 C 117.527344 166.675781 114.535156 167.347656 111.394531 168.070312 L 110.972656 168.167969 C 105.203125 169.496094 100.148438 170.746094 95.519531 171.984375 C 84.914062 174.621094 78.015625 176.394531 75.542969 177.117188 C 62.132812 180.777344 39.675781 188.53125 39.734375 199.390625 C 39.769531 205.886719 44.917969 212.664062 55.042969 219.53125 C 63.3125 225.144531 72.625 229.269531 77.101562 231.253906 C 77.523438 231.4375 77.894531 231.605469 78.21875 231.75 C 97.355469 240.589844 120.679688 249.105469 143.292969 257.363281 C 160.378906 263.605469 176.546875 269.511719 188.601562 274.777344 C 200.496094 279.972656 206.878906 286.570312 207.566406 294.386719 C 208.40625 304 200.6875 315.398438 184.597656 328.269531 C 175.714844 335.375 164.695312 342.328125 155.320312 347.785156 C 152.257812 349.613281 149.371094 351.265625 146.773438 352.714844 L 264.171875 353.222656 " fill-opacity="1" fill-rule="nonzero"/></g><g clip-path="url(#9289af0016)"><path fill="#ffffff" d="M 207.566406 294.386719 C 206.878906 286.570312 200.496094 279.972656 188.601562 274.777344 C 176.546875 269.511719 160.378906 263.605469 143.292969 257.363281 C 120.679688 249.105469 97.355469 240.589844 78.21875 231.75 C 77.894531 231.605469 77.523438 231.4375 77.101562 231.253906 C 72.625 229.269531 63.3125 225.144531 55.042969 219.53125 C 44.917969 212.664062 39.769531 205.886719 39.734375 199.390625 C 39.675781 188.53125 62.132812 180.777344 75.542969 177.117188 C 78.015625 176.394531 84.914062 174.621094 95.519531 171.984375 C 100.148438 170.746094 105.203125 169.496094 110.972656 168.167969 L 111.394531 168.070312 C 114.535156 167.347656 117.527344 166.675781 120.421875 166.023438 C 130.066406 163.855469 137.710938 162.136719 142.421875 160.523438 L 142.652344 160.445312 C 143.367188 160.191406 149.578125 157.839844 147.992188 153.121094 L 147.953125 153.03125 C 147.097656 151.230469 145.339844 149.59375 143.011719 148.429688 L 100.234375 126.769531 L 96.664062 126.769531 L 141.964844 149.492188 C 143.96875 150.496094 145.476562 151.894531 146.207031 153.433594 C 147.425781 157.160156 142.390625 159.0625 141.808594 159.265625 L 141.773438 159.277344 C 137.222656 160.863281 129.550781 162.589844 119.835938 164.773438 C 116.941406 165.425781 113.949219 166.097656 110.792969 166.824219 C 104.828125 168.191406 99.617188 169.476562 94.871094 170.75 C 84.105469 173.429688 77.363281 175.160156 74.84375 175.894531 C 68.199219 177.707031 58.683594 180.710938 51.085938 184.695312 C 42.304688 189.300781 37.863281 194.242188 37.890625 199.382812 C 37.925781 206.253906 43.269531 213.355469 53.78125 220.488281 C 62.191406 226.195312 71.613281 230.371094 76.144531 232.378906 C 76.558594 232.5625 76.929688 232.726562 77.242188 232.867188 C 96.449219 241.738281 119.816406 250.273438 142.46875 258.550781 C 159.527344 264.78125 175.664062 270.675781 187.652344 275.917969 C 198.980469 280.867188 205.054688 287.097656 205.695312 294.4375 C 207.578125 315.953125 163.574219 341.964844 144.535156 352.160156 L 143.476562 352.703125 L 146.773438 352.714844 C 149.402344 351.273438 152.171875 349.613281 155.320312 347.785156 C 164.695312 342.328125 175.714844 335.375 184.597656 328.269531 C 200.6875 315.398438 208.40625 304 207.566406 294.386719 " fill-opacity="1" fill-rule="nonzero"/></g><g clip-path="url(#a5b4fe6c20)"><path fill="#ffffff" d="M 293.851562 288.585938 C 282.59375 252.925781 223.007812 238.1875 197.652344 231.910156 C 194.757812 231.195312 192.257812 230.578125 190.390625 230.0625 C 188.753906 229.613281 186.207031 228.972656 182.988281 228.15625 C 166.136719 223.898438 131.148438 215.054688 119.988281 206.964844 C 118.554688 205.929688 117.703125 204.617188 117.589844 203.277344 L 117.582031 203.199219 C 117.441406 201.207031 118.796875 199.324219 121.207031 198.167969 C 122.84375 197.382812 124.949219 196.613281 127.464844 195.890625 C 129.703125 195.242188 131.980469 194.589844 134.28125 193.929688 C 167.828125 184.308594 205.839844 173.410156 208.015625 159.632812 C 208.859375 154.296875 204.15625 148.898438 194.046875 143.59375 C 191.226562 142.113281 188.515625 140.765625 185.992188 139.582031 L 185.945312 139.558594 C 185.546875 139.359375 185.09375 139.144531 184.53125 138.886719 L 184.5 138.871094 C 174.988281 134.082031 163.625 128.492188 160.113281 126.769531 L 157.089844 126.769531 C 160.894531 128.652344 173.929688 135.140625 183.449219 139.929688 L 183.972656 139.398438 L 183.484375 139.949219 L 183.523438 139.96875 C 184.082031 140.226562 184.519531 140.433594 184.90625 140.625 L 184.96875 140.65625 C 187.472656 141.828125 190.164062 143.167969 192.96875 144.640625 C 202.496094 149.640625 206.941406 154.628906 206.179688 159.460938 C 205.269531 165.210938 197.234375 171.058594 181.609375 177.335938 C 167.75 182.90625 150.371094 187.886719 133.566406 192.707031 C 131.261719 193.367188 128.984375 194.019531 126.75 194.664062 C 124.113281 195.425781 121.898438 196.234375 120.15625 197.070312 C 117.214844 198.480469 115.5625 200.789062 115.734375 203.246094 L 115.742188 203.335938 C 115.878906 205 116.925781 206.617188 118.679688 207.886719 C 130.144531 216.199219 165.414062 225.113281 182.398438 229.410156 C 185.605469 230.21875 188.140625 230.859375 189.757812 231.304688 C 191.652344 231.824219 194.164062 232.449219 197.074219 233.167969 C 222.132812 239.367188 281.007812 253.9375 292.019531 288.847656 C 300.371094 315.320312 274.199219 343.667969 264.171875 353.222656 L 265.125 353.226562 L 266.808594 353.234375 C 275.882812 344.144531 302.671875 316.53125 293.851562 288.585938 " fill-opacity="1" fill-rule="nonzero"/></g><path fill="#ffffff" d="M 161.902344 144.5 C 157.511719 142.1875 153.242188 139.910156 149.210938 137.738281 L 150.679688 136.355469 C 154.703125 138.523438 158.964844 140.796875 163.347656 143.105469 Z M 175.71875 161.640625 L 173.792969 160.523438 C 175.609375 158.9375 176.511719 157.355469 176.472656 155.828125 C 176.4375 154.398438 175.578125 152.929688 173.921875 151.464844 L 175.832031 150.386719 C 177.847656 152.167969 178.890625 154 178.9375 155.828125 C 178.984375 157.777344 177.902344 159.730469 175.71875 161.640625 Z M 148.667969 173.328125 L 147.667969 171.714844 C 152.015625 170.394531 157.082031 168.800781 161.734375 166.984375 L 162.953125 168.519531 C 158.210938 170.375 153.070312 171.992188 148.667969 173.328125 Z M 119.945312 182.265625 L 118.9375 180.652344 C 120.519531 180.164062 122.101562 179.679688 123.683594 179.195312 C 126.816406 178.234375 130.050781 177.242188 133.296875 176.21875 L 134.328125 177.820312 C 131.070312 178.851562 127.824219 179.84375 124.6875 180.808594 C 123.109375 181.292969 121.53125 181.777344 119.945312 182.265625 Z M 91.796875 191.878906 L 90.597656 190.332031 C 95.164062 188.566406 99.75 186.902344 104.617188 185.253906 L 105.699219 186.84375 C 100.871094 188.476562 96.324219 190.125 91.796875 191.878906 Z M 77.167969 207.117188 C 74.59375 204.882812 73.332031 202.890625 73.300781 201.019531 C 73.269531 199.15625 74.492188 197.5 76.933594 196.089844 L 78.5 197.460938 C 76.636719 198.535156 75.742188 199.703125 75.765625 201.019531 C 75.785156 202.453125 76.894531 204.128906 79.0625 206.003906 Z M 102.789062 220.957031 C 97.597656 218.738281 93.074219 216.644531 89.339844 214.734375 L 90.753906 213.308594 C 94.433594 215.1875 98.902344 217.253906 104.03125 219.445312 Z M 130.816406 231.953125 C 125.617188 230.035156 120.996094 228.285156 116.6875 226.609375 L 117.84375 225.058594 C 122.136719 226.734375 126.738281 228.472656 131.921875 230.382812 Z M 159.433594 242.1875 C 154.058594 240.304688 149.363281 238.648438 145.082031 237.121094 L 146.15625 235.539062 C 150.429688 237.066406 155.117188 238.71875 160.488281 240.597656 Z M 188.257812 252.21875 C 185.042969 251.097656 181.828125 249.980469 178.625 248.871094 L 173.835938 247.207031 L 174.882812 245.613281 L 179.671875 247.277344 C 182.871094 248.386719 186.085938 249.503906 189.308594 250.625 Z M 217.085938 262.371094 C 212.652344 260.78125 207.941406 259.109375 202.6875 257.261719 L 203.742188 255.667969 C 209.003906 257.515625 213.714844 259.1875 218.160156 260.78125 Z M 241.511719 276.386719 C 238.609375 273.476562 234.921875 270.765625 230.546875 268.328125 L 232.046875 266.929688 C 236.621094 269.476562 240.480469 272.320312 243.53125 275.375 Z M 252.558594 297.664062 L 250.058594 297.5625 C 250.089844 296.835938 250.09375 296.105469 250.074219 295.386719 C 249.976562 292.273438 249.371094 289.269531 248.269531 286.464844 L 250.671875 286.019531 C 251.832031 288.972656 252.472656 292.128906 252.574219 295.398438 C 252.59375 296.144531 252.589844 296.910156 252.558594 297.664062 Z M 244.996094 320.074219 L 242.683594 319.332031 C 244.847656 315.675781 246.554688 312.089844 247.769531 308.671875 L 250.195312 309.15625 C 248.953125 312.664062 247.203125 316.335938 244.996094 320.074219 Z M 229.457031 340.125 L 227.375 339.074219 C 230.417969 335.875 233.222656 332.636719 235.707031 329.460938 L 237.898438 330.378906 C 235.382812 333.597656 232.539062 336.875 229.457031 340.125 " fill-opacity="1" fill-rule="nonzero"/><g clip-path="url(#78772b0286)"><path fill="#ffffff" d="M 136.660156 130.863281 C 132.667969 128.640625 129.546875 126.78125 129.53125 126.769531 L 133.304688 126.769531 C 133.324219 126.78125 134.191406 127.292969 138.15625 129.5 L 136.660156 130.863281 " fill-opacity="1" fill-rule="nonzero"/></g><g clip-path="url(#f64a8b4fe1)"><path fill="#ffffff" d="M 217.976562 348.179688 C 215.863281 350.0625 213.871094 351.703125 213.164062 352.273438 L 213.023438 352.382812 L 213.019531 352.382812 C 212.921875 352.464844 212.882812 352.496094 212.894531 352.484375 L 212.253906 352.996094 L 215.648438 353.015625 C 215.730469 352.949219 216.914062 352.035156 219.941406 349.335938 L 217.976562 348.179688 " fill-opacity="1" fill-rule="nonzero"/></g></svg>