<svg xmlns="http://www.w3.org/2000/svg" xmlns:xlink="http://www.w3.org/1999/xlink" width="448" zoomAndPan="magnify" viewBox="0 0 336 479.999983" height="640" preserveAspectRatio="xMidYMid meet" version="1.0"><defs><clipPath id="0652e5c238"><path d="M 83.480469 175.238281 L 217.730469 175.238281 L 217.730469 280.15625 L 83.480469 280.15625 Z M 83.480469 175.238281 " clip-rule="nonzero"/></clipPath></defs><rect x="-33.6" width="403.2" fill="#ffffff" y="-47.999998" height="575.99998" fill-opacity="1"/><rect x="-33.6" width="403.2" fill="#ffffff" y="-47.999998" height="575.99998" fill-opacity="1"/><g clip-path="url(#0652e5c238)"><path fill="#131212" d="M 133.589844 273.601562 C 133.136719 274.46875 133.011719 275.492188 132.828125 276.445312 C 132.59375 277.648438 132.359375 278.851562 132.117188 280.050781 C 132.09375 280.164062 132.261719 280.195312 132.289062 280.085938 C 132.5625 279.027344 132.847656 277.980469 133.164062 276.933594 C 133.480469 275.878906 133.9375 274.789062 133.972656 273.679688 C 133.980469 273.464844 133.675781 273.433594 133.589844 273.601562 Z M 151.820312 255.546875 C 151.1875 253.429688 151.136719 251.019531 150.296875 248.996094 C 150.1875 248.726562 149.8125 248.808594 149.804688 249.09375 C 149.753906 251.257812 150.792969 253.664062 151.699219 255.585938 C 151.734375 255.660156 151.84375 255.625 151.820312 255.546875 Z M 151.421875 258.914062 C 152.304688 261.210938 152.769531 263.574219 153.511719 265.910156 C 153.527344 265.960938 153.617188 265.945312 153.609375 265.890625 C 153.355469 263.507812 152.890625 260.933594 151.878906 258.753906 C 151.75 258.480469 151.308594 258.617188 151.421875 258.914062 Z M 126.582031 243.21875 C 125.179688 244.003906 124.117188 245.113281 123.226562 246.441406 C 123.171875 246.519531 123.277344 246.617188 123.339844 246.539062 C 124.328125 245.355469 125.511719 244.371094 126.738281 243.445312 C 126.886719 243.339844 126.738281 243.128906 126.582031 243.21875 Z M 119.789062 249.484375 C 117.34375 250.84375 115.613281 253.386719 113.503906 255.179688 C 113.492188 255.1875 113.503906 255.207031 113.515625 255.199219 C 115.832031 253.644531 118.058594 251.722656 120.058594 249.78125 C 120.234375 249.609375 119.976562 249.378906 119.789062 249.484375 Z M 111.222656 257.789062 C 108.179688 258.882812 105.800781 261.507812 103.699219 263.855469 C 103.65625 263.902344 103.730469 263.964844 103.777344 263.917969 C 106.105469 261.578125 108.535156 259.734375 111.359375 258.058594 C 111.507812 257.972656 111.382812 257.734375 111.222656 257.789062 Z M 121.824219 235.316406 C 119.519531 236.09375 117.253906 236.972656 114.980469 237.828125 C 114.933594 237.847656 114.960938 237.917969 115.003906 237.902344 C 117.300781 237.105469 119.605469 236.332031 121.871094 235.460938 C 121.964844 235.425781 121.917969 235.285156 121.824219 235.316406 Z M 158.839844 239.667969 C 159.640625 240.875 161.050781 241.757812 162.1875 242.570312 C 163.921875 243.808594 165.765625 244.878906 167.476562 246.15625 C 167.761719 246.367188 168.125 245.957031 167.839844 245.734375 C 166.332031 244.554688 164.730469 243.511719 163.164062 242.410156 C 161.792969 241.445312 160.664062 240.101562 159.339844 239.113281 C 159.175781 239.300781 159.007812 239.484375 158.839844 239.667969 Z M 183.890625 254.832031 C 181.878906 253.761719 179.972656 252.574219 178.070312 251.320312 C 176.605469 250.351562 175.085938 249.28125 173.339844 248.917969 C 173.160156 248.882812 173.101562 249.117188 173.242188 249.203125 C 175.058594 250.316406 176.953125 251.261719 178.746094 252.425781 C 180.359375 253.46875 181.949219 254.535156 183.8125 255.070312 C 183.953125 255.113281 184.011719 254.898438 183.890625 254.832031 Z M 156.046875 242.058594 C 157.726562 244.324219 160.105469 246.289062 161.886719 248.078125 C 161.957031 248.148438 162.082031 248.039062 162.019531 247.960938 C 160.671875 246.335938 159.351562 244.695312 158.015625 243.0625 C 157.589844 242.542969 157.222656 242 156.878906 241.449219 C 156.609375 241.660156 156.332031 241.863281 156.046875 242.058594 Z M 165.757812 251.085938 C 165.652344 250.972656 165.507812 251.136719 165.574219 251.253906 C 167.046875 253.925781 169.632812 256.0625 171.929688 258.011719 C 172.03125 258.097656 172.15625 257.949219 172.0625 257.859375 C 169.820312 255.714844 167.910156 253.304688 165.757812 251.085938 Z M 137.488281 242.691406 C 136.617188 245.039062 135.789062 247.398438 134.796875 249.710938 C 133.34375 253.082031 131.886719 256.449219 130.6875 259.917969 C 130.667969 259.976562 130.753906 260.023438 130.777344 259.960938 C 132.050781 256.523438 133.601562 253.203125 135.074219 249.847656 C 136.058594 247.605469 137.160156 245.28125 137.933594 242.902344 C 137.785156 242.835938 137.636719 242.765625 137.488281 242.691406 Z M 129.601562 264.171875 C 128.480469 267.890625 126.875 271.472656 125.894531 275.226562 C 125.882812 275.273438 125.957031 275.289062 125.96875 275.242188 C 127.007812 271.542969 129.273438 268.039062 129.773438 264.207031 C 129.789062 264.09375 129.632812 264.066406 129.601562 264.171875 Z M 139.460938 253.054688 C 138.507812 258.089844 137.679688 263.175781 135.488281 267.855469 C 135.453125 267.929688 135.566406 267.984375 135.601562 267.910156 C 137.613281 263.824219 138.582031 259.390625 139.496094 254.957031 C 139.992188 252.554688 140.488281 250.15625 141.132812 247.789062 C 141.449219 246.621094 141.882812 245.511719 142.328125 244.40625 C 142.046875 244.34375 141.769531 244.273438 141.492188 244.199219 C 140.417969 247.03125 139.980469 250.324219 139.460938 253.054688 Z M 146.414062 244.898438 C 146.296875 246.300781 146.257812 247.722656 146.121094 249.089844 C 145.847656 251.917969 145.671875 254.753906 145.542969 257.589844 C 145.277344 263.429688 145.269531 269.292969 145.8125 275.117188 C 145.824219 275.25 146.023438 275.234375 146.015625 275.105469 C 145.707031 269.710938 145.746094 264.285156 145.96875 258.886719 C 146.09375 255.859375 146.3125 252.839844 146.601562 249.824219 C 146.757812 248.167969 147.101562 246.527344 147.386719 244.886719 C 147.0625 244.898438 146.738281 244.902344 146.414062 244.898438 Z M 153.65625 243.417969 C 153.386719 243.546875 153.109375 243.667969 152.828125 243.777344 C 155.925781 251.835938 158.917969 259.9375 161.945312 268.023438 C 162.003906 268.175781 162.242188 268.09375 162.1875 267.941406 C 159.332031 259.769531 156.441406 251.613281 153.65625 243.417969 Z M 133.964844 241.382812 C 134.109375 241.222656 134.257812 241.070312 134.40625 240.917969 C 134.101562 240.714844 133.804688 240.496094 133.511719 240.269531 C 133.402344 240.417969 133.292969 240.5625 133.179688 240.707031 C 132.164062 242.011719 131.167969 243.335938 130.1875 244.667969 C 128.1875 247.390625 126.21875 250.128906 124.273438 252.890625 C 120.367188 258.445312 116.488281 264.023438 112.109375 269.21875 C 112.074219 269.257812 112.132812 269.304688 112.164062 269.269531 C 116.667969 264.1875 120.652344 258.691406 124.660156 253.222656 C 126.652344 250.503906 128.652344 247.789062 130.757812 245.160156 C 131.789062 243.871094 132.863281 242.613281 133.964844 241.382812 Z M 130.714844 237.617188 C 130.53125 237.402344 130.351562 237.183594 130.175781 236.957031 C 124.277344 240.21875 118.199219 243.039062 112.09375 245.910156 C 106.058594 248.75 100.324219 252.609375 93.683594 253.898438 C 93.605469 253.914062 93.605469 254.035156 93.691406 254.023438 C 100.363281 253.238281 106.285156 249.164062 112.25 246.367188 C 118.441406 243.457031 124.660156 240.78125 130.714844 237.617188 Z M 118.777344 206.253906 C 118.828125 206.289062 118.886719 206.21875 118.839844 206.179688 C 118.363281 205.78125 117.882812 205.378906 117.40625 204.980469 C 116.859375 204.527344 116.234375 204.160156 115.726562 203.660156 C 115.695312 203.628906 115.644531 203.6875 115.683594 203.714844 C 116.195312 204.058594 116.644531 204.511719 117.109375 204.921875 C 117.644531 205.386719 118.222656 205.8125 118.777344 206.253906 Z M 174.980469 242.769531 C 172.140625 241.382812 169.164062 240.472656 166.195312 239.414062 C 166.183594 239.410156 166.175781 239.425781 166.1875 239.429688 C 169.050781 240.734375 171.816406 242.144531 174.816406 243.121094 C 175.046875 243.195312 175.210938 242.882812 174.980469 242.769531 Z M 183.273438 241.941406 C 180.589844 240.960938 177.863281 240.199219 175.085938 239.535156 C 175.074219 239.535156 175.070312 239.546875 175.078125 239.550781 C 177.753906 240.5625 180.429688 241.460938 183.203125 242.15625 C 183.328125 242.183594 183.394531 241.984375 183.273438 241.941406 Z M 173.753906 238.601562 C 170.503906 237.121094 166.671875 235.914062 163.15625 235.304688 C 163.128906 235.296875 163.117188 235.335938 163.140625 235.347656 C 166.367188 236.875 170.191406 238.09375 173.703125 238.753906 C 173.792969 238.769531 173.835938 238.640625 173.753906 238.601562 Z M 185.421875 235.667969 C 178.167969 233.863281 170.78125 232.164062 163.347656 231.3125 C 163.304688 231.304688 163.292969 231.367188 163.335938 231.378906 C 170.535156 233.421875 178.007812 234.671875 185.402344 235.765625 C 185.464844 235.773438 185.480469 235.683594 185.421875 235.667969 Z M 210.367188 206.257812 C 204.292969 207.820312 198.328125 209.746094 192.441406 211.90625 C 192.433594 211.910156 192.4375 211.925781 192.449219 211.921875 C 198.53125 210.386719 204.546875 208.613281 210.441406 206.472656 C 210.582031 206.421875 210.503906 206.222656 210.367188 206.257812 Z M 96.039062 238.914062 C 100.285156 238.453125 104.425781 238.242188 108.613281 237.304688 C 108.679688 237.289062 108.652344 237.195312 108.589844 237.195312 C 104.296875 237.371094 100.257812 238.246094 96.039062 238.898438 C 96.027344 238.898438 96.027344 238.914062 96.039062 238.914062 Z M 189.03125 203.757812 C 189.761719 203.214844 190.503906 202.679688 191.242188 202.144531 C 190.492188 202.664062 189.746094 203.1875 188.992188 203.699219 C 188.953125 203.726562 188.992188 203.78125 189.03125 203.757812 Z M 217.589844 183.359375 C 210.839844 187.894531 204.328125 192.78125 197.734375 197.546875 C 204.414062 192.902344 211.175781 188.375 217.691406 183.503906 C 217.785156 183.4375 217.6875 183.296875 217.589844 183.359375 Z M 197.734375 197.546875 C 195.554688 199.058594 193.390625 200.589844 191.242188 202.144531 C 193.421875 200.636719 195.582031 199.097656 197.734375 197.546875 Z M 93.351562 206.414062 C 97.554688 207.796875 101.566406 209.917969 105.84375 211.058594 C 105.941406 211.085938 105.984375 210.933594 105.898438 210.890625 C 101.90625 208.996094 97.472656 208.015625 93.378906 206.351562 C 93.339844 206.335938 93.308594 206.402344 93.351562 206.414062 Z M 127.097656 229.953125 C 120.257812 230.195312 113.382812 231.304688 106.574219 231.769531 C 106.53125 231.773438 106.535156 231.84375 106.578125 231.839844 C 113.402344 231.304688 120.386719 231.402344 127.207031 230.632812 C 127.164062 230.40625 127.125 230.179688 127.097656 229.953125 Z M 197.207031 218.398438 C 197.265625 218.386719 197.261719 218.296875 197.199219 218.300781 C 190.046875 219.113281 183.066406 220.292969 175.980469 221.558594 C 175.972656 221.5625 175.972656 221.578125 175.984375 221.578125 C 183.125 220.6875 190.132812 219.742188 197.207031 218.398438 Z M 113.703125 201.796875 C 113.746094 201.824219 113.796875 201.769531 113.753906 201.738281 C 108.550781 197.683594 103.132812 194.058594 97.640625 190.414062 C 97.632812 190.40625 97.625 190.417969 97.632812 190.425781 C 102.90625 194.371094 108.144531 198.257812 113.703125 201.796875 Z M 90.878906 217.621094 C 92.203125 217.808594 93.523438 218.019531 94.84375 218.222656 C 93.527344 218 92.207031 217.789062 90.894531 217.554688 C 90.847656 217.546875 90.835938 217.617188 90.878906 217.621094 Z M 104.996094 219.84375 C 109.601562 220.613281 114.203125 221.386719 118.816406 222.078125 C 118.84375 222.085938 118.855469 222.035156 118.824219 222.03125 C 114.226562 221.25 109.609375 220.554688 104.996094 219.84375 Z M 104.714844 231.816406 C 104.871094 231.765625 104.804688 231.550781 104.65625 231.550781 C 102.789062 231.558594 100.988281 232.183594 99.167969 232.53125 C 99.117188 232.542969 99.121094 232.621094 99.171875 232.613281 C 101.019531 232.371094 102.929688 232.398438 104.714844 231.816406 Z M 169.929688 212.757812 C 179.195312 206.332031 188.539062 200.121094 197.558594 193.339844 C 197.601562 193.308594 197.554688 193.246094 197.511719 193.273438 C 188.082031 199.46875 179.074219 206.160156 169.890625 212.707031 C 169.859375 212.730469 169.894531 212.78125 169.929688 212.757812 Z M 167.320312 229.003906 C 168.5 229.070312 169.679688 229.136719 170.859375 229.203125 C 170.960938 229.207031 170.992188 229.054688 170.890625 229.042969 C 169.714844 228.941406 168.542969 228.839844 167.367188 228.738281 C 166.15625 228.632812 164.984375 228.273438 163.78125 228.226562 C 163.335938 228.210938 163.300781 228.964844 163.742188 229.007812 C 164.910156 229.128906 166.125 228.9375 167.320312 229.003906 Z M 153.789062 195.582031 C 153.796875 195.550781 153.75 195.542969 153.742188 195.574219 C 152.421875 200.414062 151.027344 205.25 149.757812 210.113281 C 149.8125 210.125 149.863281 210.144531 149.914062 210.15625 C 151.265625 205.316406 152.492188 200.433594 153.789062 195.582031 Z M 181.777344 229.785156 C 181.824219 229.785156 181.824219 229.710938 181.78125 229.703125 C 178.847656 229.242188 175.699219 228.769531 172.726562 228.867188 C 172.578125 228.871094 172.574219 229.09375 172.714844 229.121094 C 175.625 229.707031 178.808594 229.757812 181.777344 229.785156 Z M 195.679688 231.347656 C 193.898438 230.882812 192.101562 230.605469 190.28125 230.308594 C 188.695312 230.046875 187.101562 229.425781 185.484375 229.550781 C 185.300781 229.5625 185.246094 229.828125 185.417969 229.902344 C 186.914062 230.535156 188.617188 230.460938 190.207031 230.71875 C 192.03125 231.019531 193.816406 231.332031 195.660156 231.460938 C 195.730469 231.464844 195.75 231.367188 195.679688 231.347656 Z M 163.703125 223.289062 C 168.609375 221.703125 173.460938 219.996094 178.234375 218.035156 C 178.332031 217.996094 178.28125 217.851562 178.179688 217.882812 C 173.257812 219.429688 168.433594 221.222656 163.648438 223.136719 C 163.550781 223.175781 163.601562 223.320312 163.703125 223.289062 Z M 187.1875 214.519531 C 185.269531 215.199219 183.210938 215.75 181.382812 216.640625 C 181.296875 216.679688 181.339844 216.800781 181.429688 216.777344 C 183.398438 216.261719 185.320312 215.339844 187.222656 214.609375 C 187.277344 214.585938 187.246094 214.496094 187.1875 214.519531 Z M 163.765625 207.421875 C 163.773438 207.414062 163.761719 207.402344 163.753906 207.410156 C 161.652344 209.78125 159.402344 212.109375 157.25 214.503906 C 157.398438 214.648438 157.542969 214.796875 157.683594 214.945312 C 159.746094 212.449219 161.722656 209.863281 163.765625 207.421875 Z M 165.988281 205.285156 C 167.160156 204.003906 168.171875 202.542969 169.246094 201.175781 C 169.269531 201.144531 169.222656 201.101562 169.195312 201.136719 C 168.101562 202.484375 166.902344 203.796875 165.914062 205.222656 C 165.878906 205.273438 165.945312 205.332031 165.988281 205.285156 Z M 170.851562 199.746094 C 173.492188 197.214844 175.703125 194.140625 178.070312 191.351562 C 178.101562 191.3125 178.042969 191.261719 178.007812 191.300781 C 175.589844 194.046875 172.867188 196.679688 170.75 199.664062 C 170.703125 199.734375 170.789062 199.804688 170.851562 199.746094 Z M 96.234375 232.6875 C 93.523438 232.886719 90.816406 233.230469 88.113281 233.511719 C 88.082031 233.515625 88.085938 233.5625 88.117188 233.558594 C 90.824219 233.308594 93.546875 233.117188 96.242188 232.785156 C 96.304688 232.777344 96.296875 232.683594 96.234375 232.6875 Z M 201.074219 224.46875 C 188.445312 224.792969 175.597656 224.542969 162.960938 225.503906 C 162.964844 225.796875 162.953125 226.089844 162.929688 226.382812 C 175.625 226.386719 188.441406 225.183594 201.082031 224.546875 C 201.132812 224.546875 201.125 224.46875 201.074219 224.46875 Z M 183.273438 207.742188 C 176.210938 212.3125 168.785156 216.621094 161.753906 221.375 C 161.78125 221.449219 161.816406 221.523438 161.84375 221.601562 C 161.957031 221.695312 162.054688 221.804688 162.121094 221.949219 C 162.15625 222.027344 162.1875 222.105469 162.21875 222.183594 C 169.398438 217.621094 176.324219 212.511719 183.347656 207.847656 C 183.417969 207.800781 183.34375 207.695312 183.273438 207.742188 Z M 152.597656 211.191406 C 153.792969 208 154.859375 204.738281 156.03125 201.660156 C 156.039062 201.640625 156.011719 201.628906 156 201.648438 C 154.703125 204.664062 153.210938 207.738281 151.855469 210.847656 C 152.105469 210.957031 152.351562 211.070312 152.597656 211.191406 Z M 158.082031 197.261719 C 159.4375 194.371094 160.386719 191.085938 161.261719 188.015625 C 161.28125 187.957031 161.179688 187.921875 161.15625 187.984375 C 159.925781 190.925781 158.617188 194.089844 157.867188 197.195312 C 157.839844 197.320312 158.027344 197.378906 158.082031 197.261719 Z M 145.511719 203.914062 C 145.511719 203.839844 145.390625 203.832031 145.382812 203.90625 C 145.257812 205.835938 145.070312 207.789062 144.925781 209.746094 C 145.136719 209.71875 145.347656 209.699219 145.558594 209.683594 C 145.550781 207.75 145.503906 205.816406 145.511719 203.914062 Z M 145.425781 200.976562 C 145.539062 198.152344 145.566406 195.332031 145.585938 192.503906 C 145.585938 192.460938 145.523438 192.46875 145.523438 192.507812 C 145.417969 195.335938 145.324219 198.15625 145.3125 200.984375 C 145.3125 201.058594 145.425781 201.046875 145.425781 200.976562 Z M 132.914062 215.476562 C 133.171875 215.734375 133.53125 215.296875 133.277344 215.042969 C 125.957031 207.746094 118.460938 200.625 111.101562 193.367188 C 111.078125 193.347656 111.046875 193.382812 111.070312 193.40625 C 118.378906 200.734375 125.5625 208.195312 132.914062 215.476562 Z M 111.757812 212.648438 C 117.820312 214.980469 123.667969 217.855469 129.726562 220.1875 C 129.8125 220.070312 129.898438 219.949219 129.988281 219.832031 C 124 217.234375 117.777344 215.183594 111.785156 212.589844 C 111.746094 212.570312 111.714844 212.632812 111.757812 212.648438 Z M 91.835938 211.765625 C 97.875 213.566406 103.914062 215.351562 109.914062 217.265625 C 112.917969 218.222656 115.929688 219.144531 118.949219 220.042969 C 121.957031 220.941406 125.097656 222.226562 128.230469 222.71875 C 128.347656 222.464844 128.472656 222.210938 128.605469 221.960938 C 126.414062 221.019531 123.996094 220.550781 121.703125 219.910156 C 118.246094 218.941406 114.792969 217.957031 111.316406 217.058594 C 104.800781 215.367188 98.324219 213.550781 91.84375 211.734375 C 91.824219 211.726562 91.816406 211.757812 91.835938 211.765625 Z M 155.613281 213.078125 C 158.34375 209.390625 160.984375 205.621094 163.703125 202.015625 C 168.871094 195.152344 174.152344 188.375 179.367188 181.550781 C 179.398438 181.511719 179.339844 181.457031 179.308594 181.5 C 174.019531 188.265625 168.796875 195.082031 163.460938 201.8125 C 160.648438 205.367188 157.660156 208.886719 154.773438 212.472656 C 155.058594 212.667969 155.335938 212.867188 155.613281 213.078125 Z M 181.539062 196.671875 C 179.8125 198.238281 178.109375 199.828125 176.417969 201.4375 C 178.140625 199.867188 179.851562 198.277344 181.539062 196.671875 Z M 183.242188 195.039062 C 182.679688 195.585938 182.105469 196.128906 181.539062 196.671875 C 182.121094 196.144531 182.703125 195.613281 183.289062 195.089844 C 183.324219 195.054688 183.277344 195.003906 183.242188 195.039062 Z M 159.515625 217.140625 C 159.609375 217.269531 159.699219 217.402344 159.785156 217.53125 C 165.367188 212.207031 170.832031 206.746094 176.417969 201.4375 C 170.820312 206.539062 165.082031 211.511719 159.464844 216.601562 C 159.542969 216.773438 159.546875 216.960938 159.515625 217.140625 Z M 127.105469 226.59375 C 112.578125 225.167969 98.046875 223.730469 83.515625 222.320312 C 83.476562 222.316406 83.464844 222.378906 83.503906 222.382812 C 98.023438 223.925781 112.542969 225.449219 127.0625 226.976562 C 127.074219 226.847656 127.089844 226.722656 127.105469 226.59375 Z M 152.65625 181.324219 C 151.039062 190.796875 149.347656 200.257812 147.734375 209.726562 C 147.984375 209.757812 148.234375 209.78125 148.484375 209.824219 C 149.933594 200.335938 151.304688 190.832031 152.75 181.339844 C 152.757812 181.28125 152.664062 181.261719 152.65625 181.324219 Z M 131.371094 216.25 C 127.242188 213.511719 122.289062 211.683594 117.769531 209.675781 C 112.777344 207.457031 107.921875 204.933594 102.976562 202.617188 C 102.910156 202.585938 102.863281 202.683594 102.929688 202.71875 C 107.386719 205.003906 111.894531 207.1875 116.363281 209.449219 C 121.179688 211.886719 125.886719 215.078125 131.011719 216.816406 C 131.34375 216.929688 131.71875 216.480469 131.371094 216.25 Z M 138.308594 179.222656 C 138.304688 179.199219 138.273438 179.203125 138.277344 179.222656 C 140.144531 189.402344 141.890625 199.613281 143.886719 209.765625 C 143.898438 209.828125 143.933594 209.875 143.976562 209.90625 C 144.09375 209.882812 144.210938 209.859375 144.328125 209.839844 C 144.339844 209.808594 144.34375 209.773438 144.335938 209.730469 C 142.457031 199.539062 140.320312 189.386719 138.308594 179.222656 Z M 133.261719 183.957031 C 136.109375 192.855469 138.847656 201.789062 141.777344 210.65625 C 141.960938 210.570312 142.148438 210.492188 142.335938 210.417969 C 139.410156 201.566406 136.289062 192.773438 133.277344 183.953125 C 133.273438 183.941406 133.261719 183.949219 133.261719 183.957031 Z M 139.515625 210.753906 C 132.824219 199.609375 127.734375 187.585938 123.710938 175.242188 C 123.707031 175.234375 123.691406 175.238281 123.695312 175.25 C 127.46875 187.785156 132.722656 199.675781 138.820312 211.25 C 139.070312 211.726562 139.804688 211.234375 139.515625 210.753906 Z M 135.835938 213.089844 C 131.511719 204.9375 126.523438 196.917969 121.628906 189.089844 C 121.625 189.078125 121.613281 189.089844 121.617188 189.097656 C 125.933594 197.28125 130.367188 205.648438 135.246094 213.507812 C 135.496094 213.914062 136.050781 213.492188 135.835938 213.089844 Z M 121.414062 189.1875 C 121.441406 189.175781 121.457031 189.222656 121.429688 189.230469 C 121.398438 189.242188 121.382812 189.199219 121.414062 189.1875 " fill-opacity="1" fill-rule="nonzero"/></g></svg>