<svg xmlns="http://www.w3.org/2000/svg" xmlns:xlink="http://www.w3.org/1999/xlink" width="448" zoomAndPan="magnify" viewBox="0 0 336 479.999983" height="640" preserveAspectRatio="xMidYMid meet" version="1.0"><defs><clipPath id="c75bf9f26a"><path d="M 33.601562 105.601562 L 302.101562 105.601562 L 302.101562 374.101562 L 33.601562 374.101562 Z M 33.601562 105.601562 " clip-rule="nonzero"/></clipPath></defs><rect x="-33.6" width="403.2" fill="#ffffff" y="-47.999998" height="575.99998" fill-opacity="1"/><rect x="-33.6" width="403.2" fill="#ffffff" y="-47.999998" height="575.99998" fill-opacity="1"/><g clip-path="url(#c75bf9f26a)"><path fill="#181818" d="M 259.210938 240.5 C 252.980469 240.710938 246.234375 240.941406 239.105469 241.085938 L 239.101562 241.085938 C 231.957031 241.253906 224.433594 241.46875 216.660156 241.546875 L 216.675781 242.863281 L 216.660156 241.546875 C 208.859375 241.636719 200.8125 241.828125 192.65625 241.84375 L 192.652344 241.84375 C 189.867188 241.855469 187.054688 241.867188 184.242188 241.882812 C 184.03125 241.882812 183.839844 241.949219 183.660156 242.042969 L 169.386719 243.199219 L 183.648438 244.355469 L 183.734375 244.40625 L 183.929688 244.496094 L 168.335938 245.476562 L 189.140625 246.78125 C 189.464844 246.929688 189.789062 247.070312 190.113281 247.21875 L 172.949219 248.214844 L 180.972656 248.683594 C 180.894531 248.800781 180.839844 248.929688 180.804688 249.0625 L 171.15625 250.15625 L 180.890625 251.253906 L 164.679688 252.273438 L 176.636719 253.027344 C 176.160156 253.386719 175.976562 254.015625 176.207031 254.574219 C 178.105469 259.152344 179.859375 263.734375 181.632812 268.160156 L 181.632812 268.164062 C 183.5 272.796875 185.1875 277.339844 186.824219 281.648438 L 186.824219 281.65625 C 188.472656 285.933594 189.949219 290.019531 191.3125 293.800781 L 191.3125 293.804688 C 192.671875 297.539062 193.882812 300.976562 194.9375 304.042969 C 193.480469 301.148438 191.859375 297.878906 190.132812 294.300781 C 188.375 290.683594 186.480469 286.773438 184.5625 282.609375 L 184.5625 282.601562 C 182.617188 278.421875 180.539062 274.046875 178.523438 269.472656 C 176.539062 264.992188 174.414062 260.417969 172.414062 255.730469 C 172.167969 255.15625 171.554688 254.832031 170.941406 254.957031 C 170.332031 255.082031 169.890625 255.617188 169.886719 256.242188 C 169.875 259.050781 169.859375 261.863281 169.847656 264.652344 L 169.847656 264.65625 C 169.84375 272.8125 169.640625 280.855469 169.554688 288.65625 L 169.554688 288.652344 C 169.320312 304.222656 168.953125 318.757812 168.511719 331.207031 L 168.511719 331.210938 C 168.304688 337.425781 168.082031 343.117188 167.859375 348.167969 C 167.640625 343.117188 167.417969 337.425781 167.210938 331.210938 L 167.210938 331.207031 C 166.769531 318.757812 166.40625 304.222656 166.164062 288.652344 L 166.164062 288.65625 C 166.078125 280.855469 165.878906 272.8125 165.875 264.65625 L 165.875 264.652344 C 165.863281 261.871094 165.847656 259.0625 165.835938 256.257812 C 165.832031 255.632812 165.390625 255.097656 164.78125 254.972656 C 164.167969 254.847656 163.554688 255.171875 163.308594 255.746094 C 161.308594 260.429688 159.191406 264.996094 157.207031 269.472656 C 155.1875 274.046875 153.113281 278.421875 151.167969 282.601562 L 151.164062 282.609375 C 149.25 286.773438 147.351562 290.683594 145.597656 294.300781 L 145.59375 294.300781 C 143.867188 297.878906 142.25 301.148438 140.789062 304.042969 C 141.847656 300.980469 143.058594 297.539062 144.414062 293.804688 L 144.417969 293.800781 C 145.78125 290.019531 147.253906 285.933594 148.902344 281.65625 L 148.90625 281.648438 C 150.542969 277.339844 152.230469 272.796875 154.097656 268.164062 L 154.097656 268.160156 C 155.871094 263.734375 157.621094 259.152344 159.519531 254.574219 C 159.761719 253.996094 159.558594 253.328125 159.039062 252.980469 C 158.515625 252.628906 157.824219 252.695312 157.378906 253.136719 C 153.863281 256.625 150.269531 259.96875 146.839844 263.28125 L 146.84375 263.277344 C 139.589844 270.195312 132.714844 276.550781 126.738281 281.90625 L 126.734375 281.910156 C 123.753906 284.601562 120.996094 287.042969 118.535156 289.191406 C 120.679688 286.730469 123.121094 283.972656 125.8125 280.992188 L 125.816406 280.988281 C 131.171875 275.011719 137.527344 268.132812 144.449219 260.878906 L 144.441406 260.882812 C 147.753906 257.457031 151.09375 253.867188 154.578125 250.355469 C 155.019531 249.910156 155.085938 249.214844 154.734375 248.695312 C 154.382812 248.175781 153.714844 247.972656 153.136719 248.214844 C 148.570312 250.121094 143.988281 251.863281 139.566406 253.636719 L 139.574219 253.632812 C 130.246094 257.308594 121.484375 260.609375 113.929688 263.316406 L 113.925781 263.316406 C 110.152344 264.691406 106.679688 265.910156 103.59375 266.972656 C 106.507812 265.5 109.804688 263.867188 113.421875 262.121094 L 113.425781 262.121094 C 120.636719 258.597656 129.113281 254.625 138.257812 250.507812 L 138.25 250.515625 C 142.730469 248.53125 147.296875 246.402344 151.976562 244.410156 C 152.550781 244.167969 152.878906 243.550781 152.753906 242.941406 C 152.632812 242.328125 152.09375 241.886719 151.46875 241.882812 C 148.664062 241.871094 145.851562 241.859375 143.070312 241.84375 L 143.066406 241.84375 C 134.910156 241.84375 126.863281 241.640625 119.0625 241.554688 L 119.066406 241.554688 C 103.496094 241.316406 88.96875 240.949219 76.511719 240.507812 L 76.507812 240.507812 C 70.292969 240.304688 64.59375 240.082031 59.542969 239.859375 C 64.59375 239.636719 70.292969 239.414062 76.507812 239.210938 L 76.511719 239.210938 C 88.96875 238.769531 103.496094 238.402344 119.066406 238.164062 L 119.0625 238.164062 C 126.863281 238.078125 134.910156 237.875 143.066406 237.875 L 143.070312 237.875 C 145.855469 237.859375 148.664062 237.847656 151.472656 237.835938 C 152.09375 237.835938 152.632812 237.390625 152.757812 236.777344 C 152.878906 236.167969 152.554688 235.554688 151.980469 235.308594 C 147.296875 233.316406 142.730469 231.191406 138.25 229.207031 L 138.257812 229.210938 C 129.117188 225.09375 120.640625 221.121094 113.429688 217.597656 L 113.421875 217.597656 C 109.808594 215.851562 106.507812 214.21875 103.59375 212.746094 C 106.683594 213.808594 110.152344 215.027344 113.929688 216.402344 L 113.933594 216.402344 C 121.488281 219.113281 130.25 222.410156 139.578125 226.085938 L 139.570312 226.082031 C 143.988281 227.855469 148.566406 229.601562 153.128906 231.503906 C 153.710938 231.746094 154.378906 231.542969 154.730469 231.023438 C 155.078125 230.503906 155.011719 229.808594 154.570312 229.359375 C 151.089844 225.847656 147.75 222.265625 144.441406 218.839844 L 144.449219 218.84375 C 137.527344 211.585938 131.171875 204.710938 125.816406 198.734375 L 125.8125 198.730469 C 123.121094 195.75 120.679688 192.992188 118.535156 190.535156 C 120.996094 192.679688 123.75 195.121094 126.734375 197.8125 L 126.738281 197.816406 C 132.714844 203.171875 139.589844 209.527344 146.84375 216.445312 L 146.839844 216.441406 C 150.265625 219.75 153.855469 223.089844 157.367188 226.574219 C 157.8125 227.015625 158.507812 227.082031 159.027344 226.734375 C 159.546875 226.382812 159.75 225.714844 159.507812 225.132812 C 157.605469 220.566406 155.863281 215.988281 154.085938 211.566406 L 154.089844 211.574219 C 150.414062 202.246094 147.113281 193.484375 144.40625 185.929688 L 144.402344 185.925781 C 143.03125 182.152344 141.8125 178.679688 140.75 175.589844 C 142.21875 178.507812 143.855469 181.804688 145.601562 185.417969 L 145.601562 185.425781 C 149.125 192.636719 153.097656 201.113281 157.214844 210.257812 L 157.210938 210.25 C 159.191406 214.730469 161.324219 219.292969 163.3125 223.976562 C 163.554688 224.550781 164.171875 224.875 164.78125 224.753906 C 165.394531 224.628906 165.835938 224.09375 165.839844 223.46875 C 165.851562 220.664062 165.863281 217.851562 165.878906 215.070312 L 165.878906 215.066406 C 165.890625 206.90625 166.082031 198.863281 166.175781 191.0625 C 166.253906 183.289062 166.464844 175.761719 166.632812 168.617188 L 166.632812 168.613281 C 166.78125 161.484375 167.011719 154.742188 167.222656 148.511719 L 167.222656 148.507812 C 167.421875 142.359375 167.640625 136.714844 167.859375 131.699219 C 168.078125 136.714844 168.300781 142.359375 168.5 148.507812 L 168.5 148.511719 C 168.710938 154.742188 168.941406 161.484375 169.089844 168.613281 L 169.089844 168.617188 C 169.253906 175.761719 169.464844 183.289062 169.550781 191.0625 C 169.640625 198.863281 169.832031 206.90625 169.84375 215.066406 L 169.84375 215.070312 C 169.855469 217.855469 169.871094 220.671875 169.882812 223.484375 C 169.886719 224.109375 170.332031 224.644531 170.941406 224.769531 C 171.550781 224.890625 172.167969 224.566406 172.414062 223.992188 C 174.402344 219.300781 176.535156 214.734375 178.515625 210.25 L 178.515625 210.257812 C 182.628906 201.113281 186.605469 192.636719 190.125 185.425781 L 190.128906 185.417969 C 191.875 181.804688 193.507812 178.503906 194.976562 175.589844 C 193.917969 178.679688 192.695312 182.148438 191.324219 185.925781 L 191.320312 185.929688 C 188.617188 193.484375 185.316406 202.246094 181.636719 211.574219 L 181.640625 211.566406 C 179.867188 215.988281 178.125 220.570312 176.21875 225.136719 C 175.980469 225.714844 176.179688 226.382812 176.699219 226.734375 L 176.730469 226.75 L 171.53125 227.246094 L 182.175781 228.308594 C 181.933594 228.554688 181.691406 228.804688 181.449219 229.050781 L 170.128906 230.269531 L 182.066406 231.617188 L 182.066406 231.605469 C 182.238281 231.605469 182.40625 231.585938 182.574219 231.515625 C 187.152344 229.617188 191.734375 227.863281 196.164062 226.089844 C 200.796875 224.222656 205.339844 222.535156 209.652344 220.898438 L 209.65625 220.898438 C 213.933594 219.25 218.019531 217.773438 221.800781 216.410156 L 221.804688 216.410156 C 225.539062 215.050781 228.980469 213.839844 232.042969 212.785156 C 229.152344 214.242188 225.882812 215.863281 222.304688 217.589844 L 222.300781 217.589844 C 218.683594 219.347656 214.773438 221.246094 210.609375 223.160156 L 210.605469 223.164062 C 206.425781 225.105469 202.046875 227.183594 197.472656 229.199219 L 197.472656 229.203125 C 195.429688 230.105469 193.363281 231.039062 191.28125 231.976562 L 164.945312 233.292969 L 185.957031 234.34375 C 185.21875 234.667969 184.476562 234.992188 183.726562 235.3125 C 183.640625 235.347656 183.574219 235.410156 183.5 235.464844 L 170.4375 236.574219 L 183.703125 237.707031 C 183.871094 237.78125 184.046875 237.835938 184.238281 237.835938 C 184.597656 237.839844 184.953125 237.839844 185.308594 237.84375 L 185.878906 237.890625 L 185.878906 237.847656 C 188.140625 237.855469 190.40625 237.867188 192.652344 237.878906 L 192.65625 237.878906 C 200.8125 237.890625 208.859375 238.082031 216.660156 238.171875 C 224.308594 238.253906 231.710938 238.460938 238.753906 238.625 L 171.796875 239.433594 L 259.375 240.496094 Z M 197.476562 250.519531 C 202.046875 252.535156 206.425781 254.613281 210.605469 256.558594 L 210.613281 256.5625 C 214.777344 258.476562 218.6875 260.371094 222.300781 262.128906 L 222.304688 262.128906 C 225.882812 263.859375 229.152344 265.476562 232.042969 266.933594 C 228.980469 265.878906 225.542969 264.667969 221.808594 263.3125 L 221.804688 263.308594 C 218.023438 261.945312 213.9375 260.46875 209.660156 258.824219 L 209.652344 258.820312 C 205.34375 257.183594 200.800781 255.496094 196.164062 253.628906 C 192.269531 252.066406 188.246094 250.515625 184.214844 248.871094 L 195.226562 249.511719 C 195.976562 249.851562 196.730469 250.1875 197.472656 250.519531 Z M 191.277344 260.890625 C 194.753906 264.480469 198.023438 268.054688 201.167969 271.429688 L 201.171875 271.433594 C 204.308594 274.773438 207.214844 278.003906 209.902344 280.996094 L 209.90625 281 C 212.566406 283.945312 214.984375 286.675781 217.117188 289.113281 C 214.675781 286.984375 211.949219 284.570312 209 281.902344 L 208.996094 281.898438 C 206.007812 279.210938 202.777344 276.304688 199.433594 273.167969 L 199.425781 273.164062 C 196.054688 270.027344 192.480469 266.75 188.894531 263.277344 L 188.890625 263.277344 C 185.457031 259.964844 181.875 256.617188 178.351562 253.132812 L 184.203125 253.5 C 186.601562 255.988281 188.949219 258.476562 191.277344 260.890625 Z M 188.890625 216.445312 L 188.894531 216.445312 C 192.480469 212.972656 196.054688 209.699219 199.425781 206.558594 L 199.433594 206.554688 C 202.777344 203.414062 206.007812 200.507812 208.996094 197.824219 L 209 197.820312 C 211.949219 195.152344 214.675781 192.738281 217.117188 190.605469 C 214.984375 193.046875 212.570312 195.773438 209.90625 198.722656 L 209.902344 198.726562 C 207.214844 201.714844 204.308594 204.945312 201.171875 208.289062 L 201.167969 208.296875 C 198.023438 211.667969 194.753906 215.242188 191.277344 218.832031 C 189.011719 221.179688 186.726562 223.597656 184.398438 226.019531 L 178.335938 226.59375 L 178.359375 226.578125 C 181.882812 223.097656 185.464844 219.753906 188.890625 216.445312 Z M 300.878906 238.550781 L 300.878906 238.546875 C 300.804688 238.542969 296.59375 238.253906 289.324219 237.867188 C 282.054688 237.480469 271.703125 236.992188 259.300781 236.589844 C 253.070312 236.378906 246.3125 236.144531 239.160156 236 L 239.164062 236 C 232.027344 235.835938 224.492188 235.621094 216.6875 235.542969 C 208.910156 235.453125 200.859375 235.257812 192.660156 235.246094 L 192.664062 235.246094 C 191.929688 235.242188 191.1875 235.238281 190.445312 235.234375 C 193.191406 234.007812 195.890625 232.78125 198.539062 231.605469 L 198.539062 231.609375 C 203.148438 229.574219 207.546875 227.488281 211.714844 225.550781 L 211.710938 225.550781 C 215.90625 223.621094 219.832031 221.714844 223.449219 219.957031 L 223.449219 219.960938 C 237.957031 212.957031 247.390625 207.730469 247.414062 207.722656 C 248 207.394531 248.246094 206.675781 247.988281 206.058594 C 247.726562 205.441406 247.039062 205.117188 246.394531 205.3125 C 246.378906 205.316406 236.046875 208.429688 220.90625 213.9375 L 220.910156 213.933594 C 217.125 215.296875 213.019531 216.78125 208.710938 218.441406 L 208.71875 218.4375 C 204.417969 220.070312 199.855469 221.765625 195.179688 223.648438 L 195.183594 223.648438 C 192.625 224.671875 190 225.699219 187.339844 226.753906 C 189.316406 224.6875 191.257812 222.644531 193.171875 220.660156 L 193.167969 220.664062 C 196.675781 217.039062 199.960938 213.453125 203.09375 210.085938 L 203.089844 210.089844 C 206.25 206.722656 209.171875 203.476562 211.859375 200.488281 L 211.855469 200.488281 C 222.660156 188.535156 229.433594 180.140625 229.449219 180.125 C 229.871094 179.605469 229.828125 178.84375 229.355469 178.371094 C 228.882812 177.894531 228.121094 177.855469 227.597656 178.273438 C 227.582031 178.289062 219.1875 185.0625 207.234375 195.867188 L 207.238281 195.867188 C 204.246094 198.550781 201.003906 201.472656 197.632812 204.632812 L 197.636719 204.628906 C 194.269531 207.761719 190.683594 211.046875 187.0625 214.554688 L 187.0625 214.550781 C 185.085938 216.460938 183.046875 218.394531 180.988281 220.363281 C 182.039062 217.714844 183.0625 215.09375 184.085938 212.546875 L 184.085938 212.539062 C 187.773438 203.1875 191.082031 194.402344 193.800781 186.816406 L 193.800781 186.824219 C 199.300781 171.675781 202.410156 161.347656 202.414062 161.328125 C 202.609375 160.6875 202.285156 159.996094 201.667969 159.738281 C 201.046875 159.476562 200.332031 159.726562 200.003906 160.3125 C 199.992188 160.328125 194.761719 169.765625 187.757812 184.273438 L 187.761719 184.269531 C 184.222656 191.511719 180.238281 200.007812 176.113281 209.175781 L 176.109375 209.183594 C 174.941406 211.824219 173.714844 214.523438 172.488281 217.265625 C 172.484375 216.53125 172.480469 215.789062 172.476562 215.054688 L 172.476562 215.0625 C 172.460938 206.863281 172.269531 198.808594 172.179688 191.03125 L 172.179688 191.035156 C 172.097656 183.226562 171.886719 175.691406 171.71875 168.558594 L 171.71875 168.5625 C 171.574219 161.410156 171.34375 154.652344 171.128906 148.421875 C 170.726562 135.957031 170.234375 125.566406 169.847656 118.289062 C 169.65625 114.648438 169.484375 111.789062 169.367188 109.835938 C 169.304688 108.859375 169.257812 108.113281 169.222656 107.605469 C 169.207031 107.351562 169.195312 107.160156 169.1875 107.03125 L 169.175781 106.882812 L 169.175781 106.84375 L 169.167969 106.84375 C 169.148438 106.523438 169.015625 106.21875 168.792969 105.992188 C 168.546875 105.746094 168.207031 105.605469 167.859375 105.605469 C 167.515625 105.605469 167.175781 105.746094 166.929688 105.992188 C 166.707031 106.21875 166.574219 106.519531 166.550781 106.839844 L 166.546875 106.839844 L 166.546875 106.859375 C 166.515625 107.347656 165.390625 123.851562 164.59375 148.421875 C 164.378906 154.652344 164.148438 161.410156 164 168.5625 L 164 168.558594 C 163.835938 175.691406 163.621094 183.226562 163.542969 191.035156 L 163.542969 191.03125 C 163.453125 198.808594 163.261719 206.863281 163.246094 215.0625 L 163.246094 215.054688 C 163.242188 215.785156 163.238281 216.519531 163.234375 217.25 C 162.011719 214.515625 160.785156 211.824219 159.617188 209.183594 L 159.613281 209.175781 C 155.488281 200.007812 151.503906 191.511719 147.96875 184.269531 L 147.972656 184.273438 C 140.964844 169.765625 135.734375 160.328125 135.722656 160.3125 C 135.398438 159.726562 134.679688 159.476562 134.0625 159.738281 C 133.445312 159.996094 133.121094 160.6875 133.3125 161.328125 C 133.320312 161.34375 136.425781 171.675781 141.929688 186.824219 L 141.929688 186.816406 C 144.648438 194.402344 147.953125 203.1875 151.640625 212.539062 L 151.644531 212.546875 C 152.667969 215.089844 153.6875 217.707031 154.734375 220.351562 C 152.679688 218.382812 150.640625 216.453125 148.667969 214.546875 L 148.664062 214.542969 C 141.386719 207.605469 134.496094 201.230469 128.492188 195.855469 L 128.496094 195.859375 C 116.542969 185.058594 108.140625 178.285156 108.125 178.273438 C 107.605469 177.855469 106.84375 177.894531 106.371094 178.371094 C 105.894531 178.84375 105.855469 179.601562 106.277344 180.125 C 106.289062 180.140625 113.058594 188.542969 123.859375 200.496094 L 123.855469 200.492188 C 129.234375 206.496094 135.605469 213.382812 142.542969 220.660156 L 142.546875 220.667969 C 144.453125 222.636719 146.382812 224.675781 148.347656 226.726562 C 145.707031 225.679688 143.09375 224.660156 140.550781 223.640625 L 140.542969 223.636719 C 131.191406 219.953125 122.40625 216.644531 114.820312 213.925781 L 114.828125 213.929688 C 99.683594 208.421875 89.351562 205.316406 89.332031 205.308594 C 88.6875 205.117188 88 205.441406 87.742188 206.058594 C 87.480469 206.675781 87.726562 207.394531 88.3125 207.71875 C 88.335938 207.730469 97.769531 212.964844 112.277344 219.96875 L 112.273438 219.964844 C 119.515625 223.5 128.011719 227.484375 137.179688 231.609375 L 137.1875 231.613281 C 139.824219 232.78125 142.515625 234.007812 145.253906 235.230469 C 144.523438 235.234375 143.785156 235.238281 143.058594 235.242188 L 143.066406 235.242188 C 134.863281 235.242188 126.808594 235.445312 119.035156 235.53125 L 119.027344 235.53125 C 103.441406 235.769531 88.894531 236.140625 76.417969 236.582031 L 76.421875 236.582031 C 63.957031 236.988281 53.566406 237.480469 46.289062 237.871094 C 42.648438 238.0625 39.789062 238.234375 37.835938 238.351562 C 36.859375 238.414062 36.113281 238.460938 35.605469 238.496094 C 35.351562 238.511719 35.160156 238.523438 35.03125 238.535156 L 34.882812 238.542969 L 34.855469 238.546875 L 34.84375 238.546875 L 34.84375 238.550781 C 34.523438 238.574219 34.21875 238.703125 33.992188 238.929688 C 33.746094 239.175781 33.605469 239.515625 33.605469 239.859375 C 33.605469 240.207031 33.746094 240.546875 33.992188 240.789062 C 34.21875 241.015625 34.523438 241.148438 34.84375 241.167969 L 34.84375 241.171875 C 34.917969 241.179688 39.128906 241.46875 46.394531 241.859375 C 53.667969 242.246094 64.015625 242.734375 76.421875 243.136719 L 76.417969 243.136719 C 88.894531 243.582031 103.441406 243.949219 119.027344 244.1875 L 119.035156 244.1875 C 126.808594 244.273438 134.863281 244.476562 143.066406 244.476562 L 143.058594 244.476562 C 143.785156 244.480469 144.523438 244.484375 145.25 244.488281 C 142.511719 245.714844 139.824219 246.9375 137.183594 248.105469 L 137.175781 248.109375 C 128.011719 252.234375 119.511719 256.21875 112.269531 259.753906 L 112.277344 259.753906 C 97.765625 266.757812 88.332031 271.988281 88.3125 271.996094 C 87.726562 272.324219 87.476562 273.042969 87.738281 273.660156 C 88 274.277344 88.6875 274.601562 89.328125 274.410156 C 89.347656 274.402344 99.679688 271.296875 114.824219 265.792969 L 114.820312 265.796875 C 122.402344 263.074219 131.1875 259.769531 140.539062 256.082031 L 140.546875 256.078125 C 143.09375 255.058594 145.707031 254.039062 148.351562 252.988281 C 146.382812 255.042969 144.453125 257.082031 142.546875 259.054688 L 142.542969 259.0625 C 135.605469 266.335938 129.234375 273.230469 123.855469 279.230469 L 123.859375 279.226562 C 113.058594 291.179688 106.289062 299.582031 106.277344 299.597656 C 105.855469 300.121094 105.894531 300.878906 106.371094 301.355469 C 106.84375 301.828125 107.605469 301.871094 108.125 301.449219 C 108.140625 301.433594 116.542969 294.664062 128.496094 283.863281 L 128.492188 283.867188 C 134.496094 278.492188 141.386719 272.117188 148.664062 265.179688 L 148.667969 265.175781 C 150.644531 263.261719 152.691406 261.328125 154.753906 259.355469 C 153.703125 262.003906 152.675781 264.628906 151.652344 267.179688 L 151.65625 267.179688 C 149.769531 271.855469 148.078125 276.417969 146.445312 280.714844 L 146.445312 280.707031 C 144.785156 285.019531 143.304688 289.125 141.941406 292.90625 C 136.4375 308.046875 133.324219 318.375 133.316406 318.394531 C 133.121094 319.035156 133.445312 319.726562 134.066406 319.988281 C 134.683594 320.246094 135.402344 320 135.726562 319.410156 C 135.734375 319.390625 140.960938 309.957031 147.964844 295.445312 L 147.964844 295.449219 C 149.722656 291.832031 151.628906 287.902344 153.558594 283.707031 L 153.554688 283.714844 C 155.492188 279.546875 157.578125 275.148438 159.613281 270.535156 L 159.613281 270.539062 C 160.78125 267.898438 162.007812 265.203125 163.234375 262.464844 C 163.234375 263.195312 163.238281 263.933594 163.242188 264.664062 L 163.242188 264.65625 C 163.246094 272.855469 163.445312 280.910156 163.535156 288.6875 L 163.535156 288.695312 C 163.773438 304.28125 164.140625 318.828125 164.582031 331.300781 L 164.582031 331.296875 C 164.988281 343.765625 165.480469 354.15625 165.871094 361.433594 C 166.066406 365.074219 166.234375 367.9375 166.355469 369.886719 C 166.414062 370.863281 166.464844 371.609375 166.496094 372.117188 C 166.515625 372.367188 166.527344 372.5625 166.535156 372.691406 L 166.546875 372.835938 L 166.546875 372.882812 L 166.550781 372.882812 C 166.574219 373.199219 166.707031 373.503906 166.929688 373.726562 C 167.175781 373.972656 167.515625 374.113281 167.859375 374.113281 C 168.207031 374.113281 168.546875 373.972656 168.792969 373.726562 C 169.015625 373.5 169.148438 373.195312 169.167969 372.878906 L 169.175781 372.878906 C 169.179688 372.800781 169.46875 368.59375 169.859375 361.324219 C 170.246094 354.054688 170.734375 343.703125 171.140625 331.296875 L 171.140625 331.300781 C 171.582031 318.828125 171.949219 304.28125 172.1875 288.695312 L 172.1875 288.6875 C 172.277344 280.910156 172.476562 272.855469 172.480469 264.65625 L 172.480469 264.664062 C 172.484375 263.929688 172.488281 263.1875 172.488281 262.449219 C 173.71875 265.195312 174.945312 267.894531 176.117188 270.539062 L 176.113281 270.535156 C 178.152344 275.148438 180.234375 279.546875 182.175781 283.714844 L 182.171875 283.707031 C 184.101562 287.902344 186.007812 291.832031 187.765625 295.449219 L 187.765625 295.445312 C 194.765625 309.957031 199.992188 319.390625 200.003906 319.410156 C 200.328125 320 201.046875 320.246094 201.664062 319.988281 C 202.28125 319.726562 202.605469 319.035156 202.410156 318.394531 C 202.40625 318.375 199.292969 308.046875 193.789062 292.90625 C 192.425781 289.125 190.941406 285.019531 189.28125 280.707031 L 189.285156 280.714844 C 187.652344 276.417969 185.957031 271.855469 184.074219 267.179688 C 183.050781 264.625 182.023438 261.996094 180.96875 259.339844 C 183.035156 261.316406 185.082031 263.257812 187.0625 265.167969 C 190.683594 268.675781 194.269531 271.960938 197.636719 275.09375 L 197.632812 275.089844 C 201.003906 278.25 204.246094 281.167969 207.238281 283.859375 L 207.234375 283.855469 C 219.1875 294.660156 227.582031 301.433594 227.597656 301.449219 C 228.121094 301.871094 228.882812 301.828125 229.355469 301.355469 C 229.828125 300.878906 229.871094 300.121094 229.449219 299.597656 C 229.433594 299.582031 222.660156 291.1875 211.855469 279.234375 L 211.859375 279.234375 C 209.171875 276.246094 206.25 273 203.089844 269.628906 L 203.09375 269.636719 C 199.960938 266.269531 196.675781 262.683594 193.167969 259.058594 L 193.171875 259.0625 C 191.257812 257.078125 189.3125 255.03125 187.335938 252.964844 C 189.996094 254.019531 192.625 255.046875 195.183594 256.070312 C 199.859375 257.953125 204.417969 259.648438 208.71875 261.28125 L 208.710938 261.28125 C 213.019531 262.9375 217.128906 264.421875 220.910156 265.785156 C 236.050781 271.289062 246.378906 274.402344 246.398438 274.410156 C 247.042969 274.605469 247.730469 274.277344 247.988281 273.660156 C 248.25 273.042969 248.003906 272.324219 247.417969 271.996094 C 247.394531 271.988281 237.957031 266.761719 223.449219 259.761719 C 219.835938 258.003906 215.910156 256.097656 211.710938 254.167969 L 211.71875 254.171875 C 207.550781 252.234375 203.152344 250.144531 198.539062 248.113281 C 195.894531 246.941406 193.195312 245.714844 190.449219 244.484375 C 191.1875 244.480469 191.929688 244.476562 192.664062 244.472656 L 192.660156 244.472656 C 200.859375 244.460938 208.910156 244.269531 216.691406 244.179688 C 224.492188 244.097656 232.027344 243.886719 239.164062 243.71875 L 239.160156 243.71875 C 246.3125 243.570312 253.070312 243.34375 259.300781 243.128906 C 271.765625 242.722656 282.15625 242.234375 289.433594 241.847656 C 293.070312 241.652344 295.929688 241.484375 297.882812 241.363281 C 298.859375 241.304688 299.609375 241.257812 300.113281 241.226562 C 300.367188 241.207031 300.558594 241.195312 300.691406 241.1875 L 300.835938 241.175781 L 300.863281 241.171875 L 300.878906 241.171875 L 300.878906 241.167969 C 301.199219 241.148438 301.503906 241.015625 301.730469 240.789062 C 301.976562 240.546875 302.113281 240.207031 302.113281 239.859375 C 302.113281 239.515625 301.976562 239.175781 301.730469 238.929688 C 301.503906 238.703125 301.199219 238.574219 300.878906 238.550781 " fill-opacity="1" fill-rule="nonzero"/></g></svg>