<svg xmlns="http://www.w3.org/2000/svg" xmlns:xlink="http://www.w3.org/1999/xlink" width="448" zoomAndPan="magnify" viewBox="0 0 336 479.999983" height="640" preserveAspectRatio="xMidYMid meet" version="1.0"><defs><clipPath id="9f413923f0"><path d="M 36 134 L 301 134 L 301 349.878906 L 36 349.878906 Z M 36 134 " clip-rule="nonzero"/></clipPath></defs><rect x="-33.6" width="403.2" fill="#ffffff" y="-47.999998" height="575.99998" fill-opacity="1"/><rect x="-33.6" width="403.2" fill="#ffffff" y="-47.999998" height="575.99998" fill-opacity="1"/><g clip-path="url(#9f413923f0)"><path fill="#000000" d="M 164.863281 166.238281 C 169.636719 161.734375 174.5 156.324219 180.167969 151.949219 C 201.308594 135.640625 224.625 130.140625 250.320312 139.480469 C 255.671875 141.421875 260.847656 144.160156 265.667969 147.210938 C 285.777344 159.933594 293.441406 179.25 288.023438 202.960938 C 287.148438 206.796875 285.710938 210.503906 284.753906 214.320312 C 284.527344 215.234375 284.859375 216.765625 285.519531 217.34375 C 294.269531 225.015625 298.671875 234.957031 300.515625 246.144531 C 302.089844 255.699219 299.152344 263.980469 292.484375 270.921875 C 285.085938 278.613281 275.738281 282.996094 265.839844 286.375 C 260.40625 288.230469 254.871094 289.800781 249.488281 291.785156 C 247.828125 292.394531 246.121094 293.664062 245.105469 295.101562 C 227.003906 320.664062 202.917969 337.921875 173.238281 347.628906 C 166.390625 349.867188 160.019531 349.78125 153.800781 345.882812 C 142.9375 339.066406 131.765625 332.695312 121.203125 325.441406 C 111.792969 318.984375 103.855469 310.722656 96.773438 301.730469 C 95.589844 300.230469 94.652344 299.878906 92.59375 300.308594 C 81.429688 302.65625 70.515625 301.746094 60.71875 295.503906 C 52.472656 290.257812 50.109375 281.761719 51.285156 272.707031 C 52.203125 265.644531 54.578125 258.742188 56.664062 251.875 C 57.25 249.941406 57.371094 248.726562 56.144531 247.050781 C 46.710938 234.164062 39.519531 220.210938 36.976562 204.25 C 33.640625 183.332031 39.914062 165.992188 56.539062 152.582031 C 81.664062 132.304688 112.523438 130.132812 140.222656 147.457031 C 148.949219 152.910156 156.679688 159.933594 164.863281 166.238281 Z M 171.164062 287.808594 C 170.925781 287.417969 170.683594 287.035156 170.441406 286.644531 C 169.164062 286.304688 167.863281 286.023438 166.609375 285.617188 C 162.570312 284.316406 158.433594 283.226562 154.578125 281.5 C 153.316406 280.9375 151.964844 278.546875 152.183594 277.253906 C 152.417969 275.878906 154.378906 274.695312 155.769531 273.671875 C 156.421875 273.191406 157.496094 273.175781 158.386719 273.136719 C 171.128906 272.59375 183.871094 271.945312 195.90625 277.574219 C 200.207031 279.585938 204.699219 279.0625 208.601562 276.804688 C 215.890625 272.582031 223.441406 268.535156 229.90625 263.21875 C 239.597656 255.25 250.148438 248.984375 261.398438 243.679688 C 262.65625 243.085938 263.933594 242.128906 264.71875 241 C 272.660156 229.632812 278.800781 217.40625 281.9375 203.796875 C 287.070312 181.53125 279.917969 162.976562 261.019531 150.292969 C 256.925781 147.546875 252.488281 145.207031 247.976562 143.222656 C 230.316406 135.453125 212.886719 136.394531 195.898438 145.378906 C 184.726562 151.285156 175.914062 159.941406 168.226562 169.839844 C 164.824219 174.222656 162.761719 174.273438 159.179688 170.28125 C 151.675781 161.910156 143.171875 154.707031 133.476562 149.007812 C 108.238281 134.171875 84.015625 135.585938 61.722656 153.144531 C 48.285156 163.726562 41.484375 177.566406 42.59375 194.695312 C 44.191406 219.285156 55.40625 239.425781 72.464844 256.640625 C 72.9375 257.117188 73.527344 257.476562 74.027344 257.933594 C 75.40625 259.191406 76.5625 259.144531 78.105469 257.910156 C 89.074219 249.144531 101.933594 243.964844 114.882812 239.105469 C 124.886719 235.351562 135.144531 232.285156 145.210938 228.683594 C 154.902344 225.21875 164.453125 221.1875 172.019531 214.023438 C 175.9375 210.320312 179.578125 205.835938 181.828125 200.992188 C 184.140625 196.019531 186.632812 191.496094 190.191406 187.296875 C 193.785156 183.050781 196.625 178.152344 199.667969 173.457031 C 200.761719 171.769531 201.210938 169.613281 202.453125 168.082031 C 203.359375 166.960938 205.070312 165.910156 206.457031 165.871094 C 211.097656 165.730469 213.574219 169.042969 212.214844 173.890625 C 211.222656 177.429688 209.347656 180.710938 207.925781 184.132812 C 207.148438 186.003906 206.5 187.929688 205.792969 189.832031 C 211.464844 186.625 214.914062 181.902344 217.59375 176.511719 C 219.050781 173.589844 220.296875 170.417969 222.386719 168.003906 C 223.710938 166.476562 226.40625 166.140625 228.492188 165.269531 C 229.054688 167.046875 229.933594 168.796875 230.089844 170.613281 C 230.242188 172.34375 229.722656 173.773438 231.667969 175.191406 C 232.820312 176.027344 233.191406 178.597656 233.105469 180.34375 C 232.96875 182.988281 232.121094 185.59375 231.574219 188.214844 C 231.894531 188.097656 232.214844 187.976562 232.535156 187.855469 C 233.289062 189.519531 234.800781 191.242188 234.664062 192.832031 C 233.832031 202.589844 231.484375 212.105469 223.347656 218.335938 C 215.160156 224.605469 206.238281 229.925781 197.535156 235.5 C 195.992188 236.488281 193.933594 236.671875 192.113281 237.21875 C 189.980469 237.859375 187.542969 238.035156 185.761719 239.210938 C 181.199219 242.230469 176.847656 245.585938 172.550781 248.984375 C 150.347656 266.566406 127.867188 283.726562 102.328125 296.359375 C 101.871094 296.582031 101.492188 296.960938 100.929688 297.375 C 117.84375 318.855469 139.285156 334.019531 163.660156 345.253906 C 165.75 346.21875 168.859375 346.03125 171.164062 345.3125 C 188.695312 339.828125 204.539062 331.214844 218.28125 318.910156 C 225.660156 312.300781 232.292969 305.035156 237.675781 296.40625 C 227.894531 300.703125 218.390625 305.484375 208.929688 310.332031 C 208.066406 310.777344 207.363281 311.621094 206.707031 312.386719 C 196.113281 324.800781 181.8125 329.820312 166.390625 332.320312 C 162.234375 332.992188 157.878906 332.617188 153.625 332.460938 C 150.902344 332.363281 149.023438 331.226562 150.753906 327.980469 C 141.464844 328.269531 139.507812 327.132812 139.078125 322.5 C 136.511719 320.445312 133.195312 319.085938 133.027344 317.410156 C 132.546875 312.691406 137.457031 312.742188 140.566406 311.160156 C 138.191406 310.683594 135.941406 310.496094 133.878906 309.761719 C 130.476562 308.550781 129.808594 305.335938 132.429688 302.839844 C 133.519531 301.804688 135.0625 300.90625 136.519531 300.671875 C 139.835938 300.136719 143.21875 299.839844 146.582031 299.816406 C 153.726562 299.765625 160.097656 297.351562 165.90625 293.507812 C 168 292.121094 169.429688 289.738281 171.164062 287.808594 Z M 227.457031 167.710938 C 226.972656 167.472656 226.492188 167.230469 226.011719 166.988281 C 224.921875 168.746094 223.832031 170.503906 222.742188 172.261719 C 219.789062 177.035156 217.113281 182.023438 213.769531 186.507812 C 211.953125 188.941406 209.171875 190.8125 206.503906 192.390625 C 204.164062 193.773438 202.683594 192.671875 203.09375 189.996094 C 203.429688 187.824219 204.449219 185.757812 205.183594 183.652344 C 206.539062 179.753906 208.152344 175.917969 209.105469 171.921875 C 209.367188 170.828125 207.683594 169.269531 206.890625 167.921875 C 205.953125 168.8125 204.605469 169.527344 204.152344 170.617188 C 201.152344 177.796875 196.933594 184.042969 191.414062 189.566406 C 189.179688 191.804688 187.164062 194.757812 186.277344 197.75 C 183.859375 205.882812 178.621094 211.671875 172.214844 216.679688 C 163.941406 223.148438 154.480469 227.320312 144.664062 230.773438 C 132.179688 235.164062 119.617188 239.355469 107.226562 244 C 96.4375 248.046875 86.351562 253.558594 77.519531 261.039062 C 74.859375 263.292969 73.171875 263.234375 70.78125 260.796875 C 67.441406 257.390625 63.730469 254.34375 59.375 250.421875 C 57.535156 257.558594 55.339844 263.769531 54.40625 270.164062 C 52.351562 284.285156 58.625 294.289062 71.367188 297.75 C 80.929688 300.347656 90.480469 300.859375 99.550781 295.640625 C 101.496094 294.519531 103.59375 293.660156 105.585938 292.609375 C 131.527344 278.914062 154.539062 261.027344 177.1875 242.585938 C 179.800781 240.460938 183.03125 238.980469 186.160156 237.625 C 189.863281 236.019531 194.136719 235.480469 197.5 233.40625 C 205.804688 228.285156 214.199219 223.117188 221.679688 216.910156 C 228.976562 210.855469 231.160156 201.871094 231.613281 192.582031 C 231.625 192.371094 231.308594 192.140625 231.097656 191.851562 C 224.195312 205.675781 220.886719 209.605469 216.902344 208.804688 C 227.15625 194.035156 231.425781 183.554688 229.363281 176.605469 C 228.078125 180.59375 227.378906 184.019531 225.890625 187.054688 C 223.988281 190.941406 221.539062 194.574219 219.109375 198.175781 C 218.527344 199.039062 217.105469 199.335938 216.070312 199.894531 C 215.886719 199.65625 215.703125 199.417969 215.519531 199.179688 C 222.113281 189.601562 226.117188 179.121094 227.457031 167.710938 Z M 153.078125 330.183594 C 154.183594 330.5 155.289062 331.082031 156.394531 331.085938 C 174.445312 331.140625 190.621094 326.394531 203.457031 312.828125 C 205.660156 310.5 208.335938 308.386719 211.175781 306.925781 C 226.71875 298.933594 242.742188 292.101562 259.398438 286.695312 C 266.746094 284.308594 273.941406 281.242188 280.84375 277.765625 C 286.964844 274.6875 291.765625 269.78125 294.90625 263.546875 C 301.414062 250.628906 294.613281 226.632812 282.070312 218.589844 C 281.542969 219.554688 281.03125 220.523438 280.5 221.480469 C 277.488281 226.898438 274.5 232.324219 271.453125 237.722656 C 269.691406 240.847656 267.203125 242.984375 263.808594 244.503906 C 252.78125 249.441406 242.398438 255.375 233.007812 263.207031 C 226.652344 268.5 219.347656 272.730469 212.171875 276.929688 C 206.015625 280.535156 199.164062 281.847656 192.390625 278.683594 C 181.246094 273.472656 169.511719 274.539062 157.824219 274.871094 C 156.921875 274.894531 155.683594 275.777344 155.273438 276.597656 C 154.96875 277.210938 155.46875 278.742188 156.097656 279.207031 C 157.78125 280.453125 159.625 281.648438 161.589844 282.308594 C 164.347656 283.234375 167.273438 283.683594 170.136719 284.292969 C 174.015625 285.117188 174.765625 286.617188 172.449219 289.863281 C 171.167969 291.660156 169.496094 293.351562 167.640625 294.523438 C 160.980469 298.75 153.816406 301.566406 145.722656 301.398438 C 143.253906 301.347656 140.769531 301.546875 138.308594 301.800781 C 136.175781 302.023438 134.144531 302.820312 134.101562 305.351562 C 134.058594 307.964844 136.160156 308.675781 138.277344 308.847656 C 145.125 309.410156 151.972656 310.097656 158.605469 307.34375 C 160.136719 306.707031 161.914062 306.660156 163.582031 306.347656 C 163.648438 306.714844 163.714844 307.085938 163.78125 307.453125 C 158.832031 310.207031 153.359375 311.273438 147.804688 312.117188 C 144.480469 312.621094 141.148438 313.152344 137.894531 313.972656 C 137.066406 314.179688 135.980469 315.535156 136 316.339844 C 136.015625 317.179688 137.101562 318.519531 137.933594 318.714844 C 139.964844 319.191406 142.273438 319.699219 144.203125 319.195312 C 151.359375 317.320312 158.410156 315.035156 165.503906 312.917969 C 166.734375 312.546875 167.980469 312.246094 169.21875 311.914062 C 169.339844 312.285156 169.457031 312.652344 169.574219 313.023438 C 161.046875 317.523438 152.105469 320.878906 141.980469 321.648438 C 142.679688 325.105469 144.566406 326.238281 147.503906 326.347656 C 156.1875 326.675781 164.167969 324.136719 171.941406 320.613281 C 172.925781 320.167969 173.996094 319.910156 175.023438 319.566406 C 175.132812 319.875 175.246094 320.1875 175.355469 320.496094 C 169.457031 326.957031 160.128906 325.617188 153.078125 330.183594 Z M 153.078125 330.183594 " fill-opacity="1" fill-rule="nonzero"/></g></svg>